<svg width="24" height="24" viewBox="0 0 24 24" fill="none" xmlns="http://www.w3.org/2000/svg">
<path fill-rule="evenodd" clip-rule="evenodd" d="M2.96482 3.14291H21.0355C21.5675 3.14291 22.028 3.3309 22.4169 3.70667C22.8053 4.08292 22.9999 4.53465 22.9999 5.06258C22.9999 5.69446 22.7992 6.29834 22.3988 6.87405C21.9976 7.44975 21.4985 7.94185 20.9011 8.34963C18.9148 9.69695 17.4158 10.7141 16.3981 11.4052C15.8387 11.7848 15.4227 12.0674 15.1557 12.249C15.1161 12.2762 15.0543 12.3191 14.9722 12.3768C14.8837 12.4386 14.7717 12.5175 14.6339 12.6149C14.3679 12.803 14.1469 12.9549 13.971 13.071C13.7947 13.1868 13.582 13.3168 13.3324 13.4608C13.0827 13.6049 12.8474 13.7128 12.6265 13.7848C12.4055 13.8567 12.2009 13.8927 12.0127 13.8927H12.0005H11.9883C11.8001 13.8927 11.5955 13.8567 11.3745 13.7848C11.1535 13.7128 10.9181 13.6047 10.6685 13.4608C10.4187 13.3168 10.2058 13.1871 10.0301 13.071C9.85408 12.9549 9.63313 12.8029 9.36716 12.6149C9.22904 12.5175 9.11709 12.4387 9.02862 12.3766L9.0195 12.3702C8.94191 12.316 8.88316 12.2749 8.84529 12.249C8.50259 12.0134 8.08752 11.7296 7.60623 11.4019C7.04158 11.017 6.38451 10.571 5.62894 10.0593C4.22928 9.11168 3.39035 8.54172 3.11216 8.34963C2.6047 8.01375 2.12585 7.55198 1.67583 6.9641C1.22581 6.37598 1.0007 5.8301 1.0007 5.32629C1.0007 4.70258 1.17033 4.18249 1.51015 3.76663C1.8497 3.35096 2.33438 3.14291 2.96482 3.14291ZM21.7716 9.63362C20.0994 10.7397 18.6783 11.6919 17.5079 12.4907L22.9992 17.8575V8.5897C22.6471 8.97383 22.238 9.32162 21.7716 9.63362ZM0.999863 8.58978C1.35993 8.98179 1.77353 9.32981 2.23992 9.63369C3.97836 10.7882 5.3944 11.7388 6.49342 12.4886L0.999863 17.8573V8.58978ZM22.3218 19.5606C21.9576 19.8757 21.5291 20.0353 21.0346 20.0353H2.96382C2.46935 20.0353 2.04058 19.8757 1.67635 19.5606L7.91035 13.4676C8.06628 13.577 8.21051 13.6793 8.34056 13.7724C8.80723 14.1083 9.18559 14.3703 9.47624 14.5581C9.76662 14.7464 10.1533 14.9382 10.6363 15.1341C11.1193 15.3302 11.5694 15.4279 11.9869 15.4279H11.9991H12.0113C12.4288 15.4279 12.8788 15.3302 13.3619 15.1341C13.8446 14.9382 14.2313 14.7464 14.5219 14.5581C14.8126 14.3703 15.1912 14.1083 15.6576 13.7724C15.7946 13.6757 15.9395 13.5739 16.089 13.4693L22.3218 19.5606Z" fill="white"/>
</svg>
