<svg width="384" height="73" viewBox="0 0 384 73" fill="none" xmlns="http://www.w3.org/2000/svg">
<path d="M19.9841 57.6651L0 8.64062H9.11662L24.5726 48.4881L40.1493 8.64062H48.9641L28.7385 57.6047H19.9841V57.6651Z" fill="#006282"/>
<path d="M85.3101 41.7263H57.115C58.3828 47.4619 62.7902 51.0241 68.707 51.0241C72.7521 51.0241 76.4953 49.4543 79.2122 46.6771L83.4988 51.2052C79.8763 55.1899 74.503 57.5446 68.0428 57.5446C56.5716 57.5446 48.9644 49.8769 48.9644 38.7076C48.9644 27.4174 56.7527 19.7498 67.8013 19.6895C80.9631 19.6895 86.2761 28.2627 85.3101 41.7263ZM78.2462 35.8096C77.9443 29.7721 73.9596 26.1496 67.8617 26.1496C61.945 26.1496 57.8395 29.8928 56.9338 35.8096H78.2462Z" fill="#006282"/>
<path d="M113.505 54.827C110.546 56.5779 107.467 57.5439 104.328 57.5439C98.713 57.5439 93.883 54.344 93.883 46.6764V27.3564H88.6304V21.3189H93.883V11.0552H101.852V21.3189H112.841V27.3564H101.852V45.2274C101.852 49.0914 103.301 50.2989 105.837 50.2989C107.528 50.2989 109.279 49.7555 111.452 48.6688L113.505 54.827Z" fill="#006282"/>
<path d="M146.228 23.4331L143.27 29.4102C139.949 27.3575 135.844 26.0896 132.523 26.0896C129.384 26.0896 127.029 27.116 127.029 29.8329C127.029 36.7156 146.892 32.9724 146.832 46.4964C146.832 54.164 140.01 57.6054 132.523 57.6054C127.029 57.6054 121.233 55.7941 117.49 52.4131L120.388 46.6775C123.588 49.5755 128.78 51.3264 132.885 51.3264C136.327 51.3264 138.983 50.1189 138.983 47.3416C138.983 39.674 119.361 43.9606 119.422 30.497C119.422 22.9501 126.003 19.6899 133.187 19.6899C137.836 19.6295 142.847 21.0181 146.228 23.4331Z" fill="#006282"/>
<path d="M183.238 57.786V8.70117H207.63V13.7123H188.732V30.0739H206.12V34.9643H188.732V52.7145H207.63V57.7256H183.238V57.786Z" fill="#006282"/>
<path d="M238.481 57.7855V33.0922C238.481 30.6168 237.757 28.6848 236.368 27.2358C234.919 25.7868 232.806 25.0623 229.968 25.0623C228.459 25.0623 227.07 25.1831 225.742 25.4246C224.474 25.6661 223.387 25.9679 222.542 26.3302V57.6648H217.048V23.0699C218.739 22.3454 220.671 21.6813 222.844 21.2587C224.957 20.7757 227.372 20.5342 229.908 20.5342C234.557 20.5342 238.059 21.6209 240.413 23.7341C242.768 25.8472 243.915 28.8056 243.915 32.6695V57.7855H238.481Z" fill="#006282"/>
<path d="M282.676 36.1715C282.676 36.5337 282.676 36.896 282.676 37.3186C282.676 37.7412 282.676 38.1638 282.615 38.5865L258.707 42.209C258.948 46.1333 260.156 49.0917 262.269 51.0237C264.382 52.9557 267.099 53.9217 270.42 53.9217C272.17 53.9217 273.921 53.7406 275.672 53.318C277.423 52.8953 278.872 52.352 280.019 51.6878L281.649 55.9745C280.381 56.7593 278.751 57.3631 276.699 57.8461C274.646 58.3291 272.472 58.5706 270.178 58.5706C264.865 58.5706 260.76 56.8801 257.801 53.5595C254.843 50.2388 253.394 45.5296 253.394 39.4921C253.394 36.7148 253.756 34.1187 254.42 31.8245C255.145 29.4698 256.111 27.4775 257.439 25.8473C258.767 24.1568 260.337 22.889 262.209 21.9834C264.08 21.0777 266.193 20.5947 268.608 20.5947C272.955 20.5947 276.397 21.9834 278.872 24.7002C281.468 27.3567 282.676 31.2207 282.676 36.1715ZM277.483 35.3866C277.423 31.7641 276.638 29.1076 275.008 27.4171C273.438 25.7266 271.325 24.8813 268.669 24.8813C265.529 24.8813 263.054 26.0888 261.243 28.4435C259.431 30.8585 258.465 34.1187 258.405 38.2242L277.483 35.3866Z" fill="#006282"/>
<path d="M307.49 25.4849C307.007 25.4246 306.463 25.3038 305.98 25.3038C305.437 25.2434 304.954 25.2434 304.411 25.2434C303.203 25.2434 301.935 25.3642 300.788 25.5453C299.581 25.7264 298.615 26.0283 297.769 26.3906V57.7252H292.275V23.0699C293.845 22.3454 295.777 21.6813 298.011 21.2587C300.245 20.7757 302.599 20.5342 305.075 20.5342C305.739 20.5342 306.343 20.5342 306.886 20.5946C307.49 20.6549 308.033 20.7153 308.516 20.7757L307.49 25.4849Z" fill="#006282"/>
<path d="M343.171 57.9063C343.171 62.7363 341.903 66.4795 339.367 69.0757C336.831 71.6718 333.269 73 328.741 73C326.387 73 324.153 72.7585 322.1 72.2151C320.047 71.6718 318.357 71.068 317.028 70.3435L318.719 65.8758C319.806 66.4795 321.255 67.0229 322.945 67.5059C324.696 67.9889 326.447 68.2304 328.319 68.2304C331.518 68.2304 333.873 67.3248 335.443 65.5739C337.013 63.823 337.797 61.2873 337.797 57.9667V54.8272C336.831 55.3102 335.684 55.7328 334.356 55.9743C333.028 56.2762 331.639 56.3969 330.311 56.3969C328.077 56.3969 326.085 56.0347 324.213 55.2498C322.402 54.4649 320.832 53.3782 319.504 51.8688C318.176 50.3594 317.149 48.5482 316.425 46.435C315.7 44.3219 315.278 41.8465 315.278 39.0089C315.278 35.809 315.7 33.0318 316.545 30.6772C317.391 28.3225 318.538 26.4509 320.047 24.9416C321.557 23.4322 323.368 22.3454 325.36 21.6209C327.413 20.8964 329.647 20.5342 332.122 20.5342C334.296 20.5342 336.348 20.7757 338.22 21.2587C340.152 21.7417 341.782 22.3454 343.171 23.0699V57.9063V57.9063ZM337.797 26.2094C337.133 25.9075 336.288 25.6057 335.201 25.3642C334.115 25.1227 332.967 25.0623 331.76 25.0623C330.19 25.0623 328.741 25.3038 327.413 25.7868C326.085 26.2698 324.877 27.0547 323.911 28.2018C322.945 29.2885 322.1 30.7375 321.557 32.4884C320.953 34.2393 320.651 36.3524 320.651 38.8278C320.651 43.1748 321.617 46.4954 323.549 48.6689C325.481 50.8424 328.017 51.9895 331.035 51.9895C332.183 51.9895 333.45 51.8688 334.718 51.6273C335.986 51.3858 337.013 51.0235 337.797 50.6009V26.2094Z" fill="#006282"/>
<path d="M364.665 72.336H359.05L364.302 57.7856L351.201 21.2588H357.118L365.872 47.8238C366.053 48.4879 366.234 49.0916 366.415 49.6954C366.597 50.2991 366.717 50.8425 366.778 51.3255L367.08 53.016H367.2L367.563 51.3255C367.623 50.8425 367.744 50.2991 367.864 49.6954C367.985 49.0916 368.166 48.4879 368.408 47.8238L377.102 21.2588H383.079L364.665 72.336Z" fill="#006282"/>
<path d="M166.876 0.550293H163.194V65.9364H166.876V0.550293Z" fill="#F1BD19"/>
</svg>
