<?xml version="1.0" standalone="no"?>
<!DOCTYPE svg PUBLIC "-//W3C//DTD SVG 1.1//EN" "http://www.w3.org/Graphics/SVG/1.1/DTD/svg11.dtd" >
<svg xmlns="http://www.w3.org/2000/svg">
<metadata>Generated by IcoMoon</metadata>
<defs>
<font id="enicom" horiz-adv-x="1024">
<font-face units-per-em="1024" ascent="960" descent="-64" />
<missing-glyph horiz-adv-x="1024" />
<glyph unicode="&#x20;" horiz-adv-x="512" d="" />
<glyph unicode="&#xe900;" glyph-name="calendar-small" d="M913.92 888.32h-120.32v46.080c0 15.36-10.24 25.6-25.6 25.6s-25.6-10.24-25.6-25.6v-46.080h-204.8v46.080c0 15.36-10.24 25.6-25.6 25.6s-25.6-10.24-25.6-25.6v-46.080h-204.8v46.080c0 15.36-10.24 25.6-25.6 25.6s-25.6-10.24-25.6-25.6v-46.080h-120.32c-58.88 0-110.080-48.64-110.080-110.080v-732.16c0-61.44 51.2-110.080 110.080-110.080h801.28c61.44 0 110.080 48.64 110.080 110.080v732.16c2.56 61.44-48.64 110.080-107.52 110.080zM972.8 46.080c0-33.28-28.16-58.88-58.88-58.88h-803.84c-30.72 0-58.88 25.6-58.88 58.88v732.16c0 33.28 28.16 58.88 58.88 58.88h120.32v-64c0-15.36 10.24-25.6 25.6-25.6s25.6 10.24 25.6 25.6v64h204.8v-64c0-15.36 10.24-25.6 25.6-25.6s25.6 10.24 25.6 25.6v64h204.8v-64c0-15.36 10.24-25.6 25.6-25.6s25.6 10.24 25.6 25.6v64h120.32c33.28 0 58.88-25.6 58.88-58.88v-732.16zM576 563.2h-128c-15.36 0-25.6-10.24-25.6-25.6s10.24-25.6 25.6-25.6h128c15.36 0 25.6 10.24 25.6 25.6s-10.24 25.6-25.6 25.6zM576 394.24h-128c-15.36 0-25.6-10.24-25.6-25.6s10.24-25.6 25.6-25.6h128c15.36 0 25.6 10.24 25.6 25.6s-10.24 25.6-25.6 25.6zM576 225.28h-128c-15.36 0-25.6-10.24-25.6-25.6s10.24-25.6 25.6-25.6h128c15.36 0 25.6 10.24 25.6 25.6s-10.24 25.6-25.6 25.6zM832 563.2h-128c-15.36 0-25.6-10.24-25.6-25.6s10.24-25.6 25.6-25.6h128c15.36 0 25.6 10.24 25.6 25.6s-10.24 25.6-25.6 25.6zM832 394.24h-128c-15.36 0-25.6-10.24-25.6-25.6s10.24-25.6 25.6-25.6h128c15.36 0 25.6 10.24 25.6 25.6s-10.24 25.6-25.6 25.6zM832 225.28h-128c-15.36 0-25.6-10.24-25.6-25.6s10.24-25.6 25.6-25.6h128c15.36 0 25.6 10.24 25.6 25.6s-10.24 25.6-25.6 25.6zM320 563.2h-128c-15.36 0-25.6-10.24-25.6-25.6s10.24-25.6 25.6-25.6h128c15.36 0 25.6 10.24 25.6 25.6s-10.24 25.6-25.6 25.6zM320 394.24h-128c-15.36 0-25.6-10.24-25.6-25.6s10.24-25.6 25.6-25.6h128c15.36 0 25.6 10.24 25.6 25.6s-10.24 25.6-25.6 25.6zM320 225.28h-128c-15.36 0-25.6-10.24-25.6-25.6s10.24-25.6 25.6-25.6h128c15.36 0 25.6 10.24 25.6 25.6s-10.24 25.6-25.6 25.6z" />
<glyph unicode="&#xe901;" glyph-name="cards-small" d="M962.56 806.4h-673.28c-33.28 0-58.88-28.16-58.88-61.44v-66.56h-40.96c-33.28 0-61.44-28.16-61.44-61.44v-66.56h-66.56c-33.28 0-61.44-25.6-61.44-58.88v-337.92c0-35.84 25.6-64 58.88-64h673.28c33.28 0 61.44 28.16 58.88 61.44v66.56h66.56c33.28 0 61.44 28.16 61.44 61.44v66.56h40.96c33.28 0 61.44 28.16 61.44 61.44v337.92c2.56 33.28-25.6 61.44-58.88 61.44zM742.4 151.040c0-5.12-5.12-10.24-10.24-10.24h-670.72c-5.12 0-10.24 5.12-10.24 10.24v340.48c0 5.12 5.12 7.68 10.24 7.68h673.28c5.12 0 10.24-5.12 10.24-10.24l-2.56-337.92zM870.4 279.040c0-5.12-5.12-10.24-10.24-10.24h-66.56v220.16c0 33.28-28.16 58.88-58.88 58.88h-555.52v69.12c0 5.12 5.12 10.24 10.24 10.24h673.28c2.56 0 7.68-5.12 7.68-10.24v-337.92zM972.8 407.040c0-5.12-5.12-10.24-10.24-10.24h-40.96v220.16c0 33.28-28.16 61.44-61.44 61.44h-578.56v66.56c0 5.12 2.56 10.24 7.68 10.24h673.28c5.12 0 10.24-5.12 10.24-10.24v-337.92zM394.24 473.6c-84.48 0-153.6-69.12-153.6-153.6s69.12-153.6 153.6-153.6c84.48 0 153.6 69.12 153.6 153.6s-69.12 153.6-153.6 153.6zM394.24 220.16c-56.32-2.56-102.4 43.52-102.4 99.84s46.080 102.4 102.4 102.4c56.32 0 102.4-46.080 102.4-102.4s-46.080-99.84-102.4-99.84z" />
<glyph unicode="&#xe902;" glyph-name="careers-small" d="M880.64 788.48h-171.52v87.040c0 48.64-38.4 87.040-87.040 84.48h-222.72c-46.080 0-84.48-38.4-84.48-84.48v-84.48h-171.52c-79.36-2.56-143.36-66.56-143.36-145.92v-568.32c0-76.8 64-140.8 143.36-140.8h739.84c79.36 0 143.36 64 143.36 143.36v565.76c-2.56 79.36-66.56 143.36-145.92 143.36zM366.080 875.52c0 17.92 15.36 33.28 33.28 33.28h222.72c17.92 0 35.84-15.36 35.84-33.28v-84.48h-291.84v84.48zM972.8 79.36c0-51.2-40.96-92.16-92.16-92.16h-737.28c-51.2 0-92.16 40.96-92.16 92.16v314.88h263.68v-35.84c0-15.36 10.24-25.6 25.6-25.6s25.6 10.24 25.6 25.6v35.84h289.28v-35.84c0-15.36 10.24-25.6 25.6-25.6s25.6 10.24 25.6 25.6v35.84h266.24v-314.88zM975.36 445.44v0h-268.8v35.84c0 15.36-10.24 25.6-25.6 25.6s-25.6-10.24-25.6-25.6v-35.84h-289.28v35.84c0 15.36-10.24 25.6-25.6 25.6s-25.6-10.24-25.6-25.6v-35.84h-263.68v199.68c0 51.2 40.96 92.16 92.16 92.16h739.84c51.2 0 92.16-40.96 92.16-92.16v-199.68z" />
<glyph unicode="&#xe903;" glyph-name="car-small" d="M1000.96 471.040l-76.8 115.2c-28.16 40.96-74.24 66.56-122.88 66.56h-99.84c-15.36 69.12-76.8 120.32-148.48 120.32h-53.76v15.36c0 33.28-28.16 61.44-61.44 61.44h-168.96c-35.84 0-64-28.16-64-61.44v-15.36h-53.76c-84.48 0-151.040-69.12-151.040-151.040v-325.12c0-51.2 25.6-99.84 71.68-128 15.36-7.68 30.72-15.36 46.080-17.92 12.8-69.12 76.8-115.2 145.92-102.4 51.2 7.68 92.16 48.64 102.4 99.84h332.8c15.36-69.12 81.92-112.64 148.48-97.28 48.64 10.24 87.040 48.64 97.28 97.28h53.76c15.36 0 25.6 10.24 25.6 25.6v217.6c0 28.16-7.68 53.76-23.040 79.36zM117.76 202.24c-7.68 2.56-15.36 5.12-20.48 10.24-28.16 17.92-46.080 51.2-46.080 84.48v325.12c0 53.76 43.52 99.84 99.84 99.84h43.52v-432.64c-38.4-15.36-66.56-46.080-76.8-87.040zM240.64 97.28c-40.96 0-74.24 33.28-74.24 74.24s33.28 74.24 74.24 74.24c40.96 0 74.24-33.28 74.24-74.24s-33.28-74.24-74.24-74.24zM448 197.12h-84.48c-12.8 56.32-61.44 97.28-117.76 99.84v424.96h202.24v-524.8zM448 773.12h-192v15.36c0 5.12 5.12 10.24 10.24 10.24h168.96c7.68 0 12.8-5.12 12.8-10.24v-15.36zM652.8 296.96c0-53.76-43.52-99.84-99.84-99.84h-53.76v524.8h53.76c53.76 0 99.84-43.52 99.84-99.84v-325.12zM821.76 97.28c-40.96 0-74.24 33.28-74.24 74.24s33.28 74.24 74.24 74.24c40.96 0 74.24-33.28 74.24-74.24s-33.28-74.24-74.24-74.24zM972.8 197.12h-28.16c-15.36 69.12-81.92 112.64-148.48 97.28-48.64-10.24-87.040-48.64-97.28-97.28h-33.28c23.040 28.16 38.4 64 38.4 99.84v304.64h97.28c33.28 0 61.44-15.36 79.36-43.52l76.8-115.2c10.24-15.36 15.36-33.28 15.36-51.2v-194.56z" />
<glyph unicode="&#xe904;" glyph-name="cash-small" d="M998.4-5.12h-61.44v870.4c0 10.24-5.12 17.92-12.8 23.040l-125.44 71.68c-2.56 0-5.12 2.56-7.68 2.56h-2.56c-2.56 0-7.68 0-10.24-2.56l-396.8-179.2c-10.24-5.12-15.36-12.8-15.36-23.040v-122.88c0-2.56 0-2.56 0-5.12l-271.36-99.84c-10.24-2.56-17.92-12.8-17.92-23.040v-512h-51.2c-15.36 0-25.6-10.24-25.6-25.6s10.24-25.6 25.6-25.6h972.8c15.36 0 25.6 10.24 25.6 25.6 0 12.8-10.24 25.6-25.6 25.6zM478.72-7.68h-350.72v496.64l350.72 128v-624.64zM604.16-7.68h-74.24v616.96l74.24-43.52v-573.44zM762.88-7.68v0h-107.52v588.8c0 10.24-5.12 17.92-12.8 23.040l-125.44 71.68c0 2.56-5.12 2.56-7.68 2.56s-5.12 0-7.68 0h-2.56l-79.36-28.16v92.16l343.040 153.6v-903.68zM885.76-7.68h-74.24v896l74.24-40.96v-855.040zM304.64 256c20.48 0 35.84-15.36 35.84-35.84s-15.36-35.84-35.84-35.84c-20.48 0-35.84 15.36-35.84 35.84v0c0 15.36-10.24 25.6-25.6 25.6s-25.6-10.24-25.6-25.6c0-38.4 25.6-71.68 61.44-81.92v-28.16c0-15.36 10.24-25.6 25.6-25.6s25.6 10.24 25.6 25.6v28.16c46.080 12.8 71.68 61.44 58.88 107.52-10.24 35.84-46.080 61.44-84.48 61.44-20.48 0-35.84 15.36-35.84 35.84s15.36 35.84 35.84 35.84c20.48 0 35.84-15.36 35.84-35.84 0-15.36 10.24-25.6 25.6-25.6s25.6 10.24 25.6 25.6c0 38.4-25.6 71.68-61.44 81.92v28.16c0 15.36-10.24 25.6-25.6 25.6s-25.6-10.24-25.6-25.6v-28.16c-46.080-12.8-71.68-61.44-58.88-107.52 12.8-35.84 46.080-61.44 84.48-61.44z" />
<glyph unicode="&#xe905;" glyph-name="channels-small" d="M916.48 962.56h-238.080c-56.32 0-104.96-48.64-104.96-107.52v-240.64c0-56.32 46.080-104.96 104.96-104.96h238.080c58.88 0 107.52 48.64 107.52 107.52v238.080c0 56.32-48.64 104.96-107.52 107.52zM975.36 614.4c0-28.16-25.6-53.76-56.32-53.76h-238.080c-28.16 0-53.76 23.040-53.76 53.76v238.080c0 30.72 23.040 56.32 53.76 56.32h235.52c30.72 0 56.32-25.6 58.88-53.76v-240.64zM345.6 960h-238.080c-58.88 0-107.52-48.64-107.52-104.96v-240.64c0-56.32 48.64-104.96 107.52-104.96h235.52c58.88 0 107.52 48.64 107.52 104.96v238.080c0 58.88-46.080 107.52-104.96 107.52zM399.36 616.96c0-28.16-23.040-53.76-53.76-53.76h-238.080c-30.72 0-56.32 23.040-56.32 53.76v238.080c0 28.16 25.6 53.76 56.32 53.76v2.56h235.52c30.72 0 56.32-25.6 56.32-56.32v-238.080zM916.48 386.56h-238.080c-56.32 0-104.96-46.080-104.96-104.96v-238.080c0-58.88 46.080-107.52 104.96-107.52h238.080c58.88 0 107.52 48.64 107.52 107.52v238.080c0 56.32-48.64 104.96-107.52 104.96zM975.36 43.52c-2.56-30.72-25.6-56.32-56.32-56.32h-238.080c-28.16 0-53.76 25.6-53.76 56.32v238.080c0 28.16 23.040 53.76 53.76 53.76 0 0 235.52 0 238.080 0 30.72 0 56.32-23.040 56.32-53.76v-238.080zM345.6 386.56h-238.080c-58.88 0-107.52-46.080-107.52-104.96v-238.080c0-58.88 48.64-107.52 107.52-107.52h235.52c58.88 0 107.52 48.64 107.52 107.52v238.080c0 56.32-46.080 104.96-104.96 104.96zM399.36 43.52c0-30.72-23.040-56.32-53.76-56.32h-238.080c-30.72 0-56.32 25.6-56.32 56.32v238.080c2.56 28.16 25.6 53.76 56.32 53.76 0 0 235.52 0 238.080 0 28.16 0 53.76-23.040 53.76-53.76v-238.080z" />
<glyph unicode="&#xe906;" glyph-name="circles-small" d="M312.195 160.78c-157.346 0-287.22 127.376-287.22 287.22 0 157.346 127.376 287.22 287.22 287.22 47.454 0 94.907-12.488 137.366-34.966 12.488-7.493 17.483-22.478 9.99-34.966s-22.478-17.483-34.966-9.99v0c-114.888 62.439-259.746 19.98-322.185-94.907s-17.483-259.746 97.405-322.185 259.746-19.98 322.185 97.405c17.483 34.966 27.473 72.429 27.473 112.39 0 14.985 9.99 24.976 24.976 24.976s24.976-9.99 24.976-24.976c0-159.844-127.376-287.22-287.22-287.22zM736.78 160.78c-47.454 0-94.907 12.488-137.366 34.966-12.488 7.493-17.483 22.478-9.99 34.966s22.478 17.483 34.966 9.99c0 0 0 0 0 0 114.888-62.439 259.746-19.98 322.185 97.405 62.439 114.888 19.98 259.746-97.405 322.185s-259.746 14.985-322.185-99.902c-17.483-34.966-27.473-72.429-27.473-112.39 0-14.985-9.99-24.976-24.976-24.976s-24.976 9.99-24.976 24.976c0 157.346 127.376 287.22 287.22 287.22s287.22-127.376 287.22-287.22-127.376-287.22-287.22-287.22c0 0 0 0 0 0z" />
<glyph unicode="&#xe907;" glyph-name="clock-small" d="M512 921.6c-260.267 0-473.6-213.333-473.6-473.6s213.333-473.6 473.6-473.6 473.6 213.333 473.6 473.6c0 260.267-213.333 473.6-473.6 473.6zM541.867 34.133v59.733c0 17.067-12.8 29.867-29.867 29.867s-29.867-12.8-29.867-29.867v-59.733c-200.533 12.8-362.667 170.667-384 371.2h42.667c17.067 0 29.867 12.8 29.867 29.867s-12.8 29.867-29.867 29.867h-46.933c8.533 209.067 174.933 384 384 396.8v-46.933c0-17.067 12.8-29.867 29.867-29.867s29.867 12.8 29.867 29.867v46.933c209.067-12.8 375.467-187.733 384-396.8h-59.733c-17.067 0-29.867-12.8-29.867-29.867s12.8-29.867 29.867-29.867h59.733c-17.067-200.533-179.2-354.133-379.733-371.2zM512 691.2v0c-17.067 0-29.867-12.8-29.867-29.867v-209.067l-110.933-110.933c-12.8-12.8-12.8-29.867 0-42.667 4.267-4.267 12.8-8.533 21.333-8.533v0c8.533 0 17.067 4.267 21.333 8.533l119.467 119.467c4.267 4.267 8.533 12.8 8.533 21.333v221.867c0 17.067-12.8 29.867-29.867 29.867z" />
<glyph unicode="&#xe908;" glyph-name="close-small" d="M547.84 448l468.48 468.48c10.24 10.24 10.24 25.6 0 35.84s-25.6 10.24-35.84 0v0l-468.48-468.48-468.48 468.48c-10.24 10.24-25.6 10.24-35.84 0s-10.24-25.6 0-35.84l468.48-468.48-468.48-468.48c-10.24-10.24-10.24-25.6 0-35.84 0 0 0 0 0 0 10.24-10.24 25.6-10.24 35.84 0 0 0 0 0 0 0l468.48 468.48 468.48-468.48c10.24-10.24 25.6-10.24 35.84 0 0 0 0 0 0 0 10.24 10.24 10.24 25.6 0 35.84 0 0 0 0 0 0l-468.48 468.48z" />
<glyph unicode="&#xe909;" glyph-name="code-small" horiz-adv-x="768" d="M739.84 624.64l-317.44 314.88c-12.8 12.8-33.28 20.48-51.2 20.48h-258.56c-61.44 0-112.64-51.2-112.64-112.64v-801.28c0-58.88 51.2-110.080 112.64-110.080h535.040c61.44 0 112.64 51.2 112.64 112.64v527.36c0 17.92-7.68 35.84-20.48 48.64zM391.68 898.56l281.6-279.040h-192c-48.64 0-87.040 38.4-87.040 87.040v192zM709.12 48.64c0-33.28-28.16-61.44-61.44-61.44h-535.040c-33.28 0-61.44 28.16-61.44 61.44v798.72c0 33.28 28.16 61.44 61.44 61.44h227.84v-202.24c0-76.8 61.44-138.24 138.24-138.24h230.4v-519.68zM192 266.24l125.44-53.76v35.84l-89.6 35.84 89.6 33.28v35.84l-125.44-56.32zM327.68 189.44h25.6l46.080 189.44h-25.6zM412.16 317.44l87.040-35.84-87.040-33.28v-35.84l125.44 53.76v30.72l-125.44 53.76z" />
<glyph unicode="&#xe90a;" glyph-name="compass-small" d="M512 960c-281.6 0-512-230.4-512-512s230.4-512 512-512 512 230.4 512 512-230.4 512-512 512zM512-12.8c-253.44 0-460.8 207.36-460.8 460.8s207.36 460.8 460.8 460.8 460.8-207.36 460.8-460.8c0-253.44-207.36-460.8-460.8-460.8zM450.56 512c-33.28-33.28-33.28-87.040 0-120.32s87.040-30.72 120.32 2.56c30.72 33.28 30.72 84.48 0 117.76-33.28 33.28-87.040 33.28-120.32 0zM535.040 427.52c-12.8-12.8-33.28-12.8-48.64 0-12.8 12.8-12.8 33.28 0 48.64 12.8 12.8 33.28 12.8 48.64 0v0c12.8-15.36 12.8-35.84 0-48.64zM752.64 724.48l-240.64-94.72c-97.28 0-176.64-79.36-176.64-176.64 0 0 0 0 0-2.56l-92.16-238.080c-5.12-12.8 2.56-28.16 15.36-33.28 5.12-2.56 12.8-2.56 17.92 0l235.52 94.72c97.28 0 174.080 76.8 176.64 174.080 0 0 0 2.56 2.56 2.56l94.72 240.64c5.12 12.8 0 28.16-15.36 33.28-5.12 2.56-12.8 2.56-17.92 0zM358.4 366.080c7.68-15.36 17.92-28.16 28.16-38.4 12.8-12.8 25.6-23.040 40.96-30.72l-115.2-46.080 46.080 115.2zM601.6 363.52c-48.64-48.64-128-48.64-179.2 0s-48.64 128 0 179.2c48.64 48.64 128 48.64 176.64 0 51.2-51.2 51.2-130.56 2.56-179.2v0 0zM670.72 535.040c-7.68 15.36-20.48 28.16-33.28 40.96s-25.6 23.040-40.96 30.72l120.32 48.64c0 0-46.080-120.32-46.080-120.32z" />
<glyph unicode="&#xe90b;" glyph-name="directions-small" d="M990.72 394.24h-458.24v143.36h337.92c7.68 0 12.8 2.56 17.92 7.68l117.76 125.44c10.24 10.24 10.24 25.6 0 35.84l-117.76 125.44c-5.12 5.12-10.24 7.68-17.92 7.68h-337.92v94.72c0 15.36-10.24 25.6-25.6 25.6s-25.6-10.24-25.6-25.6v-94.72h-455.68c-15.36 0-25.6-10.24-25.6-25.6v-66.56c0-5.12 2.56-12.8 7.68-17.92l38.4-40.96-38.4-43.52c-5.12-2.56-7.68-7.68-7.68-15.36v-66.56c0-15.36 10.24-25.6 25.6-25.6h455.68v-140.8h-250.88c-5.12 0-10.24-2.56-12.8-5.12l-204.8-125.44c-12.8-7.68-15.36-23.040-10.24-35.84 2.56-2.56 5.12-5.12 7.68-7.68l204.8-125.44c5.12-2.56 7.68-5.12 12.8-5.12h250.88v-130.56c0-15.36 10.24-25.6 25.6-25.6s25.6 10.24 25.6 25.6v130.56h455.68c15.36 0 25.6 10.24 25.6 25.6v66.56c0 2.56 0 7.68-2.56 10.24l-17.92 48.64 23.040 48.64c2.56 2.56 2.56 7.68 2.56 10.24v66.56c-2.56 15.36-12.8 25.6-25.6 25.6zM51.2 588.8v30.72l46.080 51.2c7.68 10.24 7.68 25.6 0 33.28l-46.080 53.76v30.72h808.96l94.72-99.84-94.72-99.84h-808.96zM962.56 309.76l-25.6-53.76c-2.56-7.68-2.56-15.36 0-20.48l25.6-53.76v-35.84h-724.48l-163.84 97.28 161.28 99.84h727.040v-33.28zM990.72 394.24c-2.56 2.56-2.56 0 0 0v0zM737.28 709.12c12.8 0 25.6-10.24 25.6-25.6 0 15.36-10.24 25.6-25.6 25.6zM737.28 709.12h-450.56c-15.36 0-25.6-10.24-25.6-25.6s10.24-25.6 25.6-25.6h450.56c15.36 0 25.6 10.24 25.6 25.6s-12.8 25.6-25.6 25.6zM358.4 212.48h417.28c15.36 0 25.6 10.24 25.6 25.6s-10.24 25.6-25.6 25.6h-417.28c-15.36 0-25.6-10.24-25.6-25.6s10.24-25.6 25.6-25.6z" />
<glyph unicode="&#xe90c;" glyph-name="doc-small" horiz-adv-x="768" d="M739.84 624.64l-317.44 314.88c-12.8 12.8-33.28 20.48-51.2 20.48h-258.56c-61.44 0-112.64-51.2-112.64-112.64v-801.28c0-58.88 51.2-110.080 112.64-110.080h535.040c61.44 0 112.64 51.2 112.64 112.64v527.36c0 17.92-7.68 35.84-20.48 48.64zM394.24 898.56v0l279.040-279.040h-192c-48.64 0-87.040 38.4-87.040 87.040v192zM709.12 48.64c0-33.28-28.16-61.44-61.44-61.44h-535.040c-33.28 0-61.44 28.16-61.44 61.44v798.72c0 33.28 28.16 61.44 61.44 61.44h227.84v-202.24c0-76.8 61.44-138.24 138.24-138.24h230.4v-519.68zM394.24 898.56h-2.56l2.56-2.56zM250.88 355.84c-7.68 7.68-17.92 12.8-28.16 17.92-7.68 2.56-20.48 2.56-35.84 2.56h-66.56v-184.32h69.12c12.8 0 25.6 2.56 33.28 5.12 10.24 2.56 20.48 7.68 25.6 15.36 7.68 7.68 15.36 17.92 20.48 33.28 2.56 10.24 5.12 23.040 5.12 38.4 0 17.92-2.56 30.72-5.12 43.52-5.12 10.24-10.24 17.92-17.92 28.16zM232.96 250.88c-2.56-7.68-5.12-15.36-10.24-17.92s-7.68-5.12-15.36-7.68c-5.12 0-12.8-2.56-23.040-2.56h-25.6v120.32h15.36c15.36 0 25.6 0 30.72-2.56 7.68-2.56 12.8-5.12 17.92-7.68s7.68-10.24 10.24-17.92c2.56-7.68 2.56-17.92 2.56-33.28s0-23.040-2.56-30.72zM386.56 378.88c-15.36 0-28.16-2.56-38.4-7.68-7.68-2.56-15.36-10.24-23.040-15.36s-12.8-15.36-17.92-25.6c-5.12-12.8-7.68-28.16-7.68-46.080 0-28.16 7.68-51.2 23.040-69.12 15.36-15.36 38.4-25.6 64-25.6 28.16 0 48.64 7.68 64 25.6s23.040 40.96 23.040 69.12c0 30.72-7.68 53.76-23.040 69.12-15.36 17.92-35.84 25.6-64 25.6zM424.96 235.52c-10.24-10.24-20.48-15.36-35.84-15.36s-28.16 5.12-35.84 15.36c-10.24 10.24-15.36 25.6-15.36 46.080s5.12 35.84 12.8 46.080c10.24 10.24 20.48 15.36 35.84 15.36s28.16-5.12 35.84-15.36c10.24-10.24 12.8-25.6 12.8-46.080 2.56-17.92-2.56-33.28-10.24-46.080zM581.12 189.44c20.48 0 35.84 5.12 48.64 15.36s23.040 25.6 28.16 43.52l-35.84 10.24c-2.56-12.8-7.68-23.040-15.36-30.72s-15.36-10.24-25.6-10.24c-12.8 0-23.040 5.12-33.28 15.36s-12.8 25.6-12.8 48.64c0 23.040 5.12 38.4 12.8 48.64s20.48 15.36 33.28 15.36c10.24 0 17.92-2.56 25.6-7.68s10.24-12.8 12.8-23.040l35.84 7.68c-5.12 15.36-10.24 25.6-17.92 33.28-12.8 12.8-33.28 20.48-53.76 20.48-25.6 0-46.080-7.68-61.44-25.6s-23.040-40.96-23.040-71.68c0-28.16 7.68-51.2 23.040-69.12 15.36-12.8 35.84-20.48 58.88-20.48z" />
<glyph unicode="&#xe90d;" glyph-name="download-small" d="M490.667 51.2c4.267-4.267 8.533-4.267 8.533-8.533 8.533-4.267 17.067-4.267 25.6 0 4.267 0 8.533 4.267 8.533 8.533l294.4 294.4c12.8 12.8 12.8 34.133 0 46.933s-34.133 12.8-42.667 0v0l-238.933-234.667v759.467c0 17.067-12.8 34.133-34.133 34.133s-29.867-17.067-29.867-34.133v-763.733l-238.933 238.933c-12.8 12.8-34.133 12.8-42.667 0v0c-12.8-12.8-12.8-34.133 0-46.933l290.133-294.4zM981.333 8.533h-938.667c-17.067 0-34.133-12.8-34.133-34.133 0-17.067 12.8-34.133 34.133-34.133h938.667c17.067 0 34.133 12.8 34.133 34.133s-17.067 34.133-34.133 34.133z" />
<glyph unicode="&#xe90e;" glyph-name="drill-small" d="M1003.52 12.8c-7.68 2.56-10.24 2.56-25.6 17.92-40.96 51.2-115.2 58.88-166.4 15.36-5.12-5.12-10.24-10.24-15.36-15.36-17.92-17.92-23.040-17.92-33.28-17.92s-12.8 0-33.28 17.92c-17.92 23.040-43.52 35.84-71.68 40.96-7.68 0-12.8 2.56-20.48 0-12.8 0-25.6-2.56-38.4-5.12-20.48-7.68-38.4-20.48-53.76-38.4-20.48-17.92-23.040-17.92-33.28-17.92s-12.8 0-33.28 17.92c-40.96 51.2-115.2 58.88-166.4 15.36-5.12-5.12-10.24-10.24-15.36-15.36-20.48-17.92-23.040-17.92-33.28-17.92s-12.8 0-33.28 17.92c-23.040 28.16-56.32 43.52-92.16 43.52s-69.12-15.36-92.16-43.52c-15.36-15.36-20.48-17.92-25.6-17.92-12.8-2.56-23.040-15.36-20.48-30.72 2.56-12.8 15.36-23.040 30.72-20.48 20.48 5.12 38.4 15.36 51.2 33.28 23.040 23.040 33.28 28.16 56.32 28.16s33.28-5.12 56.32-28.16c30.72-38.4 84.48-46.080 122.88-15.36 5.12 5.12 10.24 10.24 15.36 15.36 23.040 23.040 33.28 28.16 56.32 28.16s33.28-5.12 56.32-28.16c30.72-38.4 84.48-46.080 122.88-15.36 5.12 5.12 10.24 10.24 15.36 15.36 10.24 10.24 20.48 20.48 33.28 25.6 10.24 2.56 23.040 5.12 33.28 2.56 12.8-2.56 23.040-7.68 43.52-28.16 30.72-38.4 84.48-46.080 122.88-15.36 5.12 5.12 10.24 10.24 15.36 15.36 23.040 23.040 33.28 28.16 56.32 28.16s33.28-5.12 56.32-28.16c12.8-15.36 30.72-28.16 51.2-33.28 12.8-5.12 28.16 5.12 30.72 17.92v2.56c0 15.36-10.24 30.72-23.040 33.28zM25.6 266.24h61.44v-145.92c0-15.36 10.24-25.6 25.6-25.6s25.6 10.24 25.6 25.6v145.92h747.52v-145.92c0-15.36 10.24-25.6 25.6-25.6s25.6 10.24 25.6 25.6v145.92h61.44c15.36 0 25.6 10.24 25.6 25.6s-10.24 25.6-25.6 25.6h-117.76v222.72c0 15.36-10.24 25.6-25.6 25.6h-92.16l122.88 138.24v-94.72c0-15.36 10.24-25.6 25.6-25.6s25.6 10.24 25.6 25.6v161.28c0 15.36-10.24 25.6-25.6 25.6-7.68 0-15.36-2.56-17.92-7.68l-197.12-220.16h-99.84c-15.36 0-25.6-10.24-25.6-25.6v-222.72h-89.6l-87.040 542.72c-2.56 12.8-12.8 23.040-25.6 23.040h-30.72v35.84c0 15.36-10.24 25.6-25.6 25.6s-25.6-10.24-25.6-25.6v-38.4h-33.28c-12.8 0-23.040-10.24-25.6-23.040l-84.48-542.72h-117.76c-15.36 0-25.6-10.24-25.6-25.6 0-12.8 10.24-25.6 25.6-25.6zM619.52 517.12h209.92v-197.12h-209.92v197.12zM276.48 832h69.12l12.8-79.36h-94.72l12.8 79.36zM256 701.44h110.080l15.36-102.4h-140.8l15.36 102.4zM230.4 547.84h158.72l15.36-102.4h-189.44l15.36 102.4zM207.36 394.24h207.36l12.8-76.8h-232.96l12.8 76.8z" />
<glyph unicode="&#xe90f;" glyph-name="drop-small" d="M827.077 868.103h-630.154c-36.759 0-65.641-28.882-65.641-63.015 0-15.754 5.251-31.508 15.754-42.010l273.067-322.954v-107.651c0-7.877 5.251-15.754 10.503-21.005l120.779-86.646c7.877-5.251 18.379-5.251 26.256-2.626 7.877 5.251 13.128 13.128 13.128 23.631v183.795c2.626 2.626 2.626 7.877 2.626 13.128l280.944 317.703c23.631 26.256 23.631 68.267-2.626 91.897-13.128 10.503-28.882 15.754-44.636 15.754zM543.508 295.713l-68.267 47.262v70.892h68.267v-118.154zM834.954 794.585l-283.569-328.205h-86.646l-278.318 330.831c-2.626 5.251-2.626 10.503 2.626 15.754 2.626 2.626 5.251 2.626 7.877 2.626h630.154c5.251 0 10.503-2.626 10.503-7.877 2.626-2.626 0-10.503-2.626-13.128zM596.021 64.656l-60.39 126.031c-5.251 13.128-21.005 18.379-34.133 10.503-5.251-2.626-10.503-7.877-10.503-10.503l-60.39-126.031c0 0 0-2.626 0-2.626-15.754-47.262 10.503-99.774 57.764-112.903 47.262-15.754 99.774 10.503 112.903 57.764 5.251 18.379 5.251 39.385 0 57.764-2.626-2.626-5.251 0-5.251 0zM543.508 12.144c-13.128-15.754-39.385-18.379-55.138-5.251-2.626 2.626-5.251 2.626-5.251 5.251-7.877 10.503-7.877 21.005-5.251 31.508l36.759 73.518 36.759-73.518c0-10.503-2.626-23.631-7.877-31.508v0zM157.538 907.487h706.297c15.754 0 26.256 10.503 26.256 26.256s-10.503 26.256-26.256 26.256h-706.297c-15.754 0-26.256-10.503-26.256-26.256s10.503-26.256 26.256-26.256z" />
<glyph unicode="&#xe910;" glyph-name="facebook" horiz-adv-x="512" d="M366.080 742.4h110.080c15.36 0 25.6 10.24 25.6 25.6v166.4c0 15.36-10.24 25.6-25.6 25.6h-148.48c-168.96 0-230.4-117.76-230.4-227.84v-84.48h-71.68c-15.36 0-25.6-10.24-25.6-25.6v-174.080c0-15.36 10.24-25.6 25.6-25.6h69.12v-460.8c0-15.36 10.24-25.6 25.6-25.6h202.24c15.36 0 25.6 10.24 25.6 25.6v463.36h107.52c12.8 0 23.040 10.24 25.6 23.040l17.92 171.52c0 7.68-2.56 15.36-7.68 20.48s-12.8 7.68-17.92 7.68h-125.44v74.24c0 15.36 5.12 20.48 17.92 20.48zM322.56 593.92h122.88l-12.8-120.32h-110.080c-15.36 0-25.6-10.24-25.6-25.6v-460.8h-151.040v460.8c0 15.36-10.24 25.6-25.6 25.6h-69.12v120.32h69.12c15.36 0 25.6 10.24 25.6 25.6v112.64c0 40.96 15.36 176.64 179.2 176.64h122.88v-115.2h-81.92c-2.56 0-5.12 0-7.68 0-35.84-2.56-64-35.84-61.44-71.68v-102.4c0-15.36 12.8-25.6 25.6-25.6z" />
<glyph unicode="&#xe911;" glyph-name="factory-small" d="M984.039 587.863c-4.995 4.995-14.985 4.995-22.478 4.995l-319.688-84.917v59.941c0 14.985-9.99 24.976-24.976 24.976-2.498 0-4.995 0-7.493 0l-339.668-79.922-12.488 112.39c-2.498 12.488-12.488 22.478-24.976 22.478h-19.98v14.985c0 34.966-27.473 62.439-62.439 62.439h-47.454c-7.493 0-14.985 2.498-19.98 9.99-4.995 4.995-7.493 12.488-7.493 19.98 2.498 14.985 14.985 24.976 29.971 24.976h556.956c42.459 0 77.424 34.966 77.424 77.424s-34.966 77.424-77.424 77.424c0 0 0 0 0 0h-409.6c-14.985 0-24.976-9.99-24.976-24.976s9.99-24.976 24.976-24.976h412.098c14.985 0 27.473-12.488 27.473-27.473s-12.488-27.473-27.473-27.473h-559.454c-39.961 0-74.927-29.971-79.922-69.932-4.995-42.459 24.976-79.922 67.434-84.917 2.498 0 4.995 0 7.493 0h49.951c7.493 0 12.488-4.995 12.488-12.488 0 0 0 0 0 0v-14.985h-27.473c-12.488 0-22.478-9.99-24.976-22.478l-69.932-661.854c0-7.493 2.498-14.985 7.493-19.98s9.99-7.493 17.483-7.493h904.117c14.985 0 24.976 9.99 24.976 24.976v606.907c0 7.493-4.995 14.985-9.99 19.98zM92.41-14.049l64.937 611.902h52.449l29.971-292.215v-2.498c0-2.498 0-7.493 2.498-9.99l32.468-307.2h-182.322zM274.732 462.985l319.688 72.429v-114.888h-314.693l-4.995 42.459zM944.078-14.049h-619.395l-29.971 292.215h649.366v-292.215zM944.078 328.117h-656.859l-4.995 44.956h659.356v-44.956zM944.078 423.024h-299.707v34.966l299.707 77.424v-112.39zM462.049 48.39c14.985 0 24.976 9.99 24.976 24.976v122.38c0 14.985-9.99 24.976-24.976 24.976s-24.976-9.99-24.976-24.976v-122.38c0-14.985 9.99-24.976 24.976-24.976zM771.746 48.39c14.985 0 24.976 9.99 24.976 24.976v122.38c0 14.985-9.99 24.976-24.976 24.976s-24.976-9.99-24.976-24.976v-122.38c0-14.985 12.488-24.976 24.976-24.976zM614.4 48.39c14.985 0 24.976 9.99 24.976 24.976v122.38c0 14.985-9.99 24.976-24.976 24.976s-24.976-9.99-24.976-24.976v-122.38c0-14.985 9.99-24.976 24.976-24.976z" />
<glyph unicode="&#xe912;" glyph-name="folders-small" horiz-adv-x="794" d="M755.2 683.52h-33.28v122.88c0 15.36-10.24 25.6-25.6 25.6h-33.28v102.4c0 15.36-10.24 25.6-25.6 25.6h-491.52c-15.36 0-25.6-10.24-25.6-25.6v-102.4h-35.84c-15.36 0-25.6-10.24-25.6-25.6v-122.88h-33.28c-15.36 0-25.6-10.24-25.6-25.6v-696.32c0-15.36 10.24-25.6 25.6-25.6h729.6c15.36 0 25.6 10.24 25.6 25.6v696.32c0 15.36-10.24 25.6-25.6 25.6zM171.52 908.8h440.32v-76.8h-440.32v76.8zM110.080 780.8h558.080v-97.28h-558.080v97.28zM729.6-12.8h-678.4v645.12h28.16c2.56 0 2.56 0 5.12 0s2.56 0 5.12 0h640v-645.12z" />
<glyph unicode="&#xe913;" glyph-name="hamburger" d="M998.4 473.6h-972.8c-15.36 0-25.6-10.24-25.6-25.6s10.24-25.6 25.6-25.6h972.8c15.36 0 25.6 10.24 25.6 25.6s-10.24 25.6-25.6 25.6zM998.4 166.4h-972.8c-15.36 0-25.6-10.24-25.6-25.6s10.24-25.6 25.6-25.6h972.8c15.36 0 25.6 10.24 25.6 25.6s-10.24 25.6-25.6 25.6zM25.6 729.6h972.8c15.36 0 25.6 10.24 25.6 25.6s-10.24 25.6-25.6 25.6h-972.8c-15.36 0-25.6-10.24-25.6-25.6s10.24-25.6 25.6-25.6z" />
<glyph unicode="&#xe914;" glyph-name="hands-small" d="M954.88 791.040c-38.4 0-69.12-28.16-74.24-64l-10.24-163.84c-23.040 10.24-48.64 7.68-71.68-5.12-10.24-5.12-17.92-12.8-23.040-23.040l-130.56-202.24c-23.040-38.4-33.28-81.92-33.28-125.44v-64c-38.4-5.12-66.56-35.84-66.56-74.24v-94.72c0-15.36 10.24-25.6 25.6-25.6s25.6 10.24 25.6 25.6v94.72c0 15.36 10.24 25.6 25.6 25.6h220.16c15.36 0 25.6-10.24 25.6-25.6v-94.72c0-15.36 10.24-25.6 25.6-25.6s25.6 10.24 25.6 25.6v94.72c0 33.28-20.48 61.44-53.76 71.68 0 7.68 2.56 12.8 5.12 17.92 0 0 0 2.56 0 2.56l110.080 202.24c5.12 10.24 12.8 28.16 23.040 51.2 12.8 28.16 17.92 56.32 17.92 87.040v220.16c0 38.4-30.72 69.12-66.56 69.12zM960 435.2c-5.12-15.36-12.8-30.72-20.48-46.080l-110.080-202.24c-7.68-12.8-12.8-28.16-12.8-40.96h-151.040v61.44c0 35.84 7.68 69.12 25.6 99.84l130.56 202.24c2.56 2.56 5.12 5.12 7.68 7.68 7.68 5.12 17.92 5.12 25.6 0s12.8-12.8 12.8-20.48l-99.84-174.080c0-2.56 0-2.56-2.56-5.12 0-2.56 0-2.56-2.56-5.12 0-2.56 0-2.56 0-5.12v-5.12c2.56-2.56 2.56-5.12 5.12-7.68 0-2.56 2.56-2.56 5.12-2.56 0 0 2.56-2.56 2.56-2.56l5.12-2.56c2.56 0 2.56 0 5.12-2.56 2.56 0 2.56 0 5.12 0h5.12c2.56 0 2.56 2.56 5.12 2.56 0 0 2.56 0 2.56 2.56 2.56 0 2.56 2.56 2.56 5.12 0 0 2.56 2.56 2.56 2.56l97.28 163.84c2.56 7.68 5.12 15.36 7.68 23.040 0 2.56 0 2.56 2.56 5.12l12.8 235.52c2.56 10.24 10.24 17.92 20.48 17.92s20.48-7.68 20.48-17.92v-220.16c2.56-25.6-2.56-48.64-10.24-69.12zM412.16 143.36v64c0 43.52-12.8 87.040-35.84 125.44l-128 199.68c-5.12 10.24-15.36 17.92-23.040 25.6-20.48 12.8-48.64 15.36-71.68 5.12l-7.68 166.4c-5.12 35.84-38.4 64-76.8 61.44-38.4 0-69.12-30.72-69.12-69.12v-220.16c0-30.72 5.12-58.88 17.92-87.040 10.24-23.040 17.92-38.4 23.040-51.2l112.64-202.24c0 0 0-2.56 0-2.56 2.56-5.12 5.12-12.8 5.12-17.92-30.72-10.24-53.76-38.4-53.76-71.68v-94.72c0-15.36 10.24-25.6 25.6-25.6s25.6 10.24 25.6 25.6v94.72c0 15.36 10.24 25.6 25.6 25.6h222.72c15.36 0 25.6-10.24 25.6-25.6v-94.72c0-15.36 10.24-25.6 25.6-25.6s25.6 10.24 25.6 25.6v94.72c0 38.4-30.72 71.68-69.12 74.24zM360.96 145.92h-151.040c0 15.36-5.12 30.72-12.8 40.96 0 0-110.080 202.24-110.080 202.24-5.12 10.24-12.8 25.6-20.48 46.080-10.24 20.48-15.36 43.52-15.36 66.56v217.6c0 10.24 10.24 20.48 20.48 20.48s20.48-5.12 20.48-15.36l15.36-238.080c0-2.56 0-2.56 0-5.12 0-7.68 2.56-15.36 7.68-20.48l94.72-161.28c0 0 2.56-2.56 2.56-2.56 0-2.56 2.56-2.56 2.56-5.12 0 0 2.56 0 2.56-2.56 2.56 0 2.56-2.56 5.12-2.56h7.68c2.56 0 5.12 0 7.68 0s2.56 0 5.12 0 2.56 0 5.12 2.56c0 0 2.56 2.56 2.56 2.56 2.56 0 2.56 2.56 2.56 2.56s2.56 2.56 2.56 2.56c0 2.56 2.56 2.56 2.56 5.12v5.12c0 2.56 0 2.56 0 5.12s0 2.56-2.56 5.12c0 2.56 0 2.56-2.56 5.12l-97.28 171.52c0 7.68 5.12 15.36 12.8 20.48s17.92 5.12 25.6 0c5.12-2.56 7.68-5.12 10.24-7.68l128-199.68c17.92-30.72 28.16-64 28.16-99.84v-61.44zM803.84 668.16c7.68 7.68 12.8 17.92 12.8 30.72 0 10.24-5.12 23.040-12.8 30.72-2.56 2.56-7.68 5.12-10.24 5.12l-10.24 7.68c-12.8 7.68-28.16 17.92-48.64 30.72 7.68 28.16 15.36 58.88 17.92 87.040 0 2.56 0 5.12 0 7.68 0 10.24-2.56 17.92-10.24 25.6-7.68 10.24-20.48 15.36-33.28 12.8-2.56 0-5.12 0-7.68 0h-7.68c-38.4-5.12-74.24-15.36-110.080-28.16-12.8 20.48-25.6 38.4-40.96 56.32-17.92 15.36-43.52 15.36-58.88 0 0 0-2.56-2.56-2.56-2.56l-2.56-2.56c-5.12-7.68-17.92-28.16-35.84-56.32-38.4 12.8-76.8 23.040-117.76 28.16-12.8 2.56-25.6 0-33.28-7.68-10.24-7.68-15.36-20.48-12.8-33.28 2.56-30.72 7.68-58.88 17.92-87.040-20.48-10.24-40.96-23.040-58.88-38.4l-10.24-2.56c-2.56-2.56-5.12-2.56-7.68-5.12-7.68-7.68-12.8-17.92-12.8-30.72 0-10.24 5.12-23.040 12.8-30.72 0 0 2.56-2.56 2.56-2.56l2.56-2.56c46.080-33.28 133.12-89.6 202.24-89.6 30.72-2.56 61.44 7.68 84.48 25.6 23.040-17.92 51.2-25.6 81.92-23.040 87.040 2.56 202.24 87.040 209.92 94.72zM427.52 624.64c-38.4 0-94.72 25.6-161.28 71.68v0c15.36 12.8 33.28 23.040 51.2 33.28 30.72-43.52 69.12-79.36 115.2-104.96h-5.12zM348.16 773.12c-7.68 25.6-12.8 51.2-17.92 76.8 33.28-5.12 64-12.8 97.28-25.6 2.56-53.76 15.36-107.52 38.4-156.16-48.64 23.040-89.6 58.88-117.76 104.96zM514.56 680.96c-17.92 43.52-40.96 107.52-35.84 151.040 12.8 25.6 28.16 46.080 35.84 58.88v0c12.8-17.92 25.6-35.84 35.84-56.32 10.24-53.76-15.36-115.2-35.84-153.6zM604.16 829.44c30.72 10.24 64 20.48 97.28 25.6 0 0 0 0 0 0v0c0 0 0 0 0 0-5.12-28.16-10.24-53.76-20.48-81.92-30.72-40.96-69.12-74.24-112.64-99.84 25.6 46.080 38.4 99.84 35.84 156.16zM711.68 727.040c15.36-10.24 30.72-20.48 43.52-28.16l2.56-2.56c-30.72-20.48-107.52-71.68-161.28-71.68h-5.12c46.080 25.6 87.040 61.44 120.32 102.4zM701.44 852.48v0 0z" />
<glyph unicode="&#xe915;" glyph-name="hearth-small" d="M816.64 860.16c-89.6 66.56-194.56 99.84-304.64 99.84-158.72 0-309.76-74.24-404.48-199.68-5.12-2.56-5.12-7.68-7.68-10.24-166.4-227.84-117.76-547.84 110.080-716.8 227.84-166.4 547.84-117.76 716.8 110.080s117.76 550.4-110.080 716.8zM512-12.8c-253.44 0-460.8 207.36-460.8 460.8 0 94.72 30.72 189.44 84.48 266.24h279.040c46.080 2.56 84.48-33.28 87.040-79.36s-33.28-84.48-79.36-87.040c-2.56 0-5.12 0-10.24 0h-53.76c-53.76 0-94.72-43.52-94.72-94.72 0-53.76 43.52-94.72 94.72-94.72 0 0 0 0 0 0h276.48c46.080 0 84.48-38.4 84.48-84.48s-38.4-84.48-84.48-84.48h-424.96c-15.36 0-25.6-10.24-25.6-25.6s10.24-25.6 25.6-25.6h424.96c74.24 0 135.68 61.44 135.68 135.68s-61.44 135.68-135.68 135.68h-276.48c-25.6 0-43.52 20.48-43.52 43.52 0 25.6 20.48 43.52 43.52 43.52 0 0 0 0 0 0h58.88c74.24-2.56 135.68 53.76 140.8 128s-53.76 135.68-128 140.8c-5.12 0-7.68 0-12.8 0h-238.080c176.64 184.32 468.48 189.44 652.8 12.8 74.24-71.68 122.88-166.4 138.24-268.8h-140.8c-23.040-2.56-43.52 15.36-46.080 40.96-2.56 23.040 15.36 43.52 40.96 46.080 2.56 0 5.12 0 7.68 0h64c15.36 0 25.6 10.24 25.6 25.6s-10.24 25.6-25.6 25.6h-64c-51.2 2.56-97.28-38.4-99.84-89.6s38.4-97.28 89.6-99.84c2.56 0 7.68 0 10.24 0h140.8v-10.24c0-253.44-207.36-460.8-460.8-460.8z" />
<glyph unicode="&#xe916;" glyph-name="heart-small" horiz-adv-x="998" d="M985.6 422.4c-17.92 35.84-61.44 51.2-97.28 35.84l-5.12-2.56-133.12-81.92c-20.48-12.8-46.080-23.040-69.12-25.6 2.56 10.24 5.12 20.48 5.12 30.72 0 30.72-17.92 56.32-43.52 71.68-10.24 5.12-23.040 10.24-35.84 10.24h-227.84c-48.64 0-94.72-12.8-138.24-38.4l-202.24-117.76c-12.8-7.68-17.92-23.040-10.24-35.84s23.040-17.92 33.28-10.24c0 0 0 0 2.56 0l202.24 117.76c33.28 20.48 71.68 30.72 112.64 30.72h227.84c5.12 0 7.68-2.56 12.8-2.56 10.24-5.12 15.36-15.36 15.36-28.16 0-10.24-5.12-20.48-12.8-25.6-2.56-2.56-5.12-2.56-10.24-2.56h-176.64c-15.36 0-25.6-10.24-25.6-25.6s10.24-25.6 25.6-25.6h220.16c43.52 0 87.040 12.8 125.44 35.84l130.56 79.36c12.8 5.12 25.6 0 30.72-12.8 7.68-12.8 2.56-25.6-7.68-33.28l-248.32-148.48c-20.48-12.8-43.52-17.92-64-17.92l-279.040 2.56c-25.6 2.56-48.64-7.68-66.56-25.6l-212.48-197.12c-10.24-10.24-10.24-25.6 0-35.84 0-5.12 5.12-7.68 12.8-7.68s12.8 2.56 17.92 7.68l212.48 199.68c7.68 7.68 20.48 10.24 30.72 10.24l284.16-2.56c30.72 0 61.44 10.24 89.6 25.6l248.32 145.92c33.28 20.48 43.52 64 25.6 99.84zM286.72 780.8c15.36-81.92 64-153.6 133.12-199.68 30.72-20.48 61.44-35.84 97.28-48.64 2.56 0 5.12-2.56 7.68 0 2.56 0 5.12 0 7.68 0 40.96 12.8 79.36 33.28 115.2 58.88 71.68 48.64 115.2 128 115.2 215.040v7.68c5.12 71.68-48.64 138.24-122.88 145.92-5.12 0-10.24 0-15.36 0-33.28 0-66.56-10.24-94.72-33.28-25.6 23.040-58.88 33.28-94.72 33.28h-23.040c-74.24-10.24-128-71.68-128-145.92v-7.68c2.56-7.68 2.56-17.92 2.56-25.6v0zM419.84 908.8h17.92c28.16 0 56.32-12.8 74.24-35.84 10.24-10.24 25.6-10.24 35.84-2.56 0 0 0 0 2.56 2.56 17.92 23.040 46.080 35.84 74.24 35.84h12.8c46.080-7.68 79.36-48.64 74.24-94.72v-7.68c-2.56-69.12-35.84-135.68-94.72-174.080-28.16-20.48-58.88-35.84-92.16-48.64-25.6 10.24-51.2 23.040-74.24 38.4-56.32 35.84-97.28 94.72-110.080 161.28 0 7.68 0 12.8 0 20.48v7.68c-5.12 48.64 30.72 89.6 79.36 97.28z" />
<glyph unicode="&#xe917;" glyph-name="horse-small" horiz-adv-x="819" d="M25.6 258.56h747.52c15.36 0 25.6 10.24 25.6 25.6s-10.24 25.6-25.6 25.6h-115.2c-17.92 71.68-61.44 135.68-122.88 174.080-33.28 20.48-51.2 43.52-51.2 61.44 0 10.24 2.56 20.48 5.12 30.72 2.56-2.56 5.12-5.12 7.68-7.68 28.16-25.6 69.12-35.84 107.52-30.72 17.92 2.56 33.28 7.68 46.080 20.48l17.92-15.36c12.8-10.24 28.16-15.36 43.52-12.8s30.72 10.24 40.96 20.48l28.16 33.28c20.48 25.6 17.92 61.44-7.68 81.92l-120.32 99.84c-10.24 12.8-17.92 23.040-25.6 35.84l-5.12 7.68c-15.36 20.48-35.84 38.4-61.44 46.080l-74.24 28.16 7.68 48.64c2.56 12.8-7.68 25.6-23.040 28.16-5.12 0-10.24 0-12.8-2.56-38.4-15.36-69.12-46.080-87.040-81.92l-2.56-2.56c-61.44-20.48-115.2-56.32-156.16-107.52-69.12-84.48-102.4-192-97.28-299.52 0-51.2 5.12-104.96 15.36-156.16h-104.96c-15.36 0-25.6-10.24-25.6-25.6 0-12.8 10.24-25.6 25.6-25.6zM163.84 465.92c0 0 0 2.56 0 2.56-2.56 94.72 25.6 189.44 87.040 263.68 33.28 43.52 79.36 74.24 133.12 92.16 15.36 5.12 28.16 17.92 33.28 33.28 5.12 10.24 10.24 17.92 17.92 25.6 0-20.48 12.8-38.4 33.28-46.080l74.24-28.16c15.36-5.12 28.16-15.36 35.84-28.16l5.12-7.68c10.24-17.92 20.48-33.28 35.84-46.080l120.32-99.84c2.56-2.56 2.56-7.68 0-10.24l-25.6-33.28c-2.56-2.56-2.56-2.56-5.12-2.56s-5.12 0-5.12 2.56l-38.4 30.72c-10.24 10.24-28.16 7.68-35.84-2.56 0 0-2.56-2.56-2.56-5.12-5.12-10.24-17.92-15.36-28.16-17.92-23.040-2.56-46.080 2.56-64 17.92-5.12 5.12-7.68 10.24-12.8 12.8-7.68 10.24-17.92 17.92-30.72 20.48-10.24 0-17.92-2.56-25.6-7.68-23.040-20.48-35.84-51.2-35.84-81.92 0-35.84 25.6-74.24 76.8-104.96 48.64-30.72 81.92-76.8 97.28-130.56h-424.96c-12.8 46.080-17.92 97.28-15.36 151.040zM716.8 184.32c-5.12 7.68-12.8 10.24-20.48 10.24h-593.92c-7.68 0-15.36-5.12-20.48-10.24l-76.8-110.080c-2.56-2.56-5.12-7.68-5.12-12.8v-99.84c0-15.36 10.24-25.6 25.6-25.6h747.52c15.36 0 25.6 10.24 25.6 25.6v99.84c0 5.12-2.56 10.24-5.12 15.36l-76.8 107.52zM747.52-12.8h-696.32v64l64 92.16h565.76l66.56-92.16c0 0 0-64 0-64zM637.44 84.48h-476.16c-15.36 0-25.6-10.24-25.6-25.6s10.24-25.6 25.6-25.6h476.16c15.36 0 25.6 10.24 25.6 25.6s-10.24 25.6-25.6 25.6z" />
<glyph unicode="&#xe918;" glyph-name="instagram" d="M778.24 960h-535.040c-133.12 0-243.2-110.080-243.2-243.2v-532.48c0-135.68 110.080-243.2 243.2-243.2h532.48c135.68 0 243.2 110.080 243.2 243.2v532.48c2.56 133.12-107.52 243.2-240.64 243.2zM972.8 184.32c0-107.52-87.040-194.56-194.56-197.12h-535.040c-107.52 0-194.56 87.040-194.56 194.56v535.040c0 107.52 87.040 194.56 194.56 197.12h532.48c107.52 0 194.56-87.040 197.12-194.56v-535.040zM808.96 832c-51.2 0-92.16-40.96-92.16-92.16s40.96-92.16 92.16-92.16c23.040 0 48.64 10.24 64 25.6 17.92 17.92 28.16 40.96 28.16 66.56 0 53.76-40.96 94.72-92.16 92.16zM808.96 698.88c-23.040 0-43.52 20.48-43.52 43.52s20.48 43.52 43.52 43.52c10.24 0 23.040-5.12 30.72-12.8s12.8-20.48 12.8-30.72c0-25.6-20.48-43.52-43.52-43.52zM808.96 650.24c0 0 0 0 0 0s0 0 0 0v0zM509.44 711.68c-145.92 0-261.12-117.76-261.12-263.68s117.76-261.12 263.68-261.12c0 0 0 0 2.56 0 143.36 0 261.12 117.76 258.56 263.68 0 0 0 0 0 0 0 145.92-117.76 261.12-263.68 261.12zM512 235.52c-117.76 0-215.040 94.72-215.040 215.040 0 117.76 94.72 215.040 215.040 215.040 117.76 0 215.040-94.72 215.040-215.040s-97.28-215.040-215.040-215.040z" />
<glyph unicode="&#xe919;" glyph-name="jpg-small" horiz-adv-x="768" d="M739.84 624.64l-317.44 314.88c-12.8 12.8-33.28 20.48-51.2 20.48h-258.56c-61.44 0-112.64-51.2-112.64-112.64v-801.28c0-58.88 51.2-110.080 112.64-110.080h535.040c61.44 0 112.64 51.2 112.64 112.64v527.36c0 17.92-7.68 35.84-20.48 48.64zM391.68 898.56l281.6-279.040h-192c-48.64 0-87.040 38.4-87.040 87.040v192zM709.12 48.64c0-33.28-28.16-61.44-61.44-61.44h-535.040c-33.28 0-61.44 28.16-61.44 61.44v798.72c0 33.28 28.16 61.44 61.44 61.44h227.84v-202.24c0-76.8 61.44-138.24 138.24-138.24h230.4v-519.68zM238.080 256c0-15.36-2.56-25.6-5.12-28.16-2.56-5.12-10.24-7.68-17.92-7.68s-15.36 2.56-17.92 10.24c-2.56 5.12-5.12 12.8-5.12 23.040l-35.84-5.12c0-20.48 5.12-33.28 15.36-43.52s23.040-15.36 40.96-15.36c15.36 0 28.16 2.56 38.4 10.24s15.36 15.36 20.48 25.6c2.56 7.68 5.12 20.48 5.12 35.84v115.2h-38.4v-120.32zM417.28 373.76c-7.68 2.56-20.48 2.56-43.52 2.56h-58.88v-184.32h35.84v69.12h23.040c17.92 0 30.72 0 38.4 2.56s12.8 5.12 20.48 7.68c5.12 5.12 10.24 10.24 15.36 17.92s5.12 17.92 5.12 28.16c0 15.36-2.56 25.6-10.24 35.84-5.12 10.24-15.36 15.36-25.6 20.48zM412.16 304.64c-2.56-5.12-7.68-7.68-12.8-10.24s-15.36-2.56-28.16-2.56h-20.48v51.2h17.92c12.8 0 23.040 0 25.6 0 5.12 0 10.24-2.56 15.36-7.68s5.12-10.24 5.12-15.36c2.56-7.68 0-12.8-2.56-15.36zM488.96 235.52c7.68-15.36 17.92-25.6 33.28-33.28s30.72-12.8 51.2-12.8c15.36 0 30.72 2.56 43.52 7.68 15.36 5.12 25.6 12.8 33.28 20.48v74.24h-79.36v-30.72h43.52v-23.040c-5.12-5.12-12.8-7.68-20.48-10.24s-15.36-5.12-23.040-5.12c-15.36 0-28.16 5.12-38.4 15.36s-15.36 28.16-15.36 48.64c0 20.48 5.12 35.84 15.36 46.080s23.040 15.36 38.4 15.36c10.24 0 20.48-2.56 25.6-7.68 7.68-5.12 12.8-12.8 15.36-20.48l35.84 7.68c-2.56 17.92-12.8 30.72-25.6 38.4-12.8 10.24-30.72 15.36-53.76 15.36-17.92 0-33.28-2.56-43.52-10.24-15.36-7.68-28.16-20.48-35.84-33.28s-12.8-30.72-12.8-51.2c2.56-20.48 5.12-35.84 12.8-51.2z" />
<glyph unicode="&#xe91a;" glyph-name="leafs-small" d="M1000.96 954.88c-7.68 5.12-15.36 7.68-23.040 5.12-25.6-7.68-312.32-102.4-378.88-145.92-117.76-81.92-140.8-174.080-145.92-202.24-7.68-43.52-5.12-143.36 58.88-199.68-10.24-25.6-20.48-53.76-30.72-81.92-17.92 58.88-40.96 115.2-71.68 168.96 25.6 40.96 33.28 89.6 17.92 135.68-33.28 99.84-156.16 158.72-399.36 192-12.8 2.56-25.6-7.68-28.16-20.48 0 0 0 0 0 0 0-2.56 0-2.56 0-5.12s0-2.56 0-5.12c2.56-15.36 48.64-314.88 238.080-345.6 15.36-2.56 33.28-5.12 51.2-5.12 28.16 0 56.32 5.12 81.92 17.92 40.96-74.24 69.12-153.6 87.040-235.52-17.92-79.36-25.6-161.28-25.6-243.2h-128c-15.36 0-25.6-10.24-25.6-25.6s10.24-25.6 25.6-25.6h309.76c15.36 0 25.6 10.24 25.6 25.6s-10.24 25.6-25.6 25.6h-130.56c0 135.68 25.6 271.36 76.8 396.8 25.6-10.24 51.2-15.36 79.36-15.36 35.84 0 71.68 5.12 104.96 17.92 253.44 74.24 263.68 529.92 266.24 550.4-2.56 7.68-5.12 15.36-10.24 20.48zM378.88 547.84c-40.96 58.88-97.28 107.52-161.28 135.68-12.8 5.12-28.16 0-33.28-12.8s0-28.16 12.8-33.28c61.44-28.16 110.080-71.68 145.92-128-30.72-12.8-64-15.36-97.28-7.68-120.32 20.48-174.080 197.12-189.44 268.8 289.28-46.080 314.88-125.44 322.56-151.040 7.68-23.040 7.68-48.64 0-71.68zM727.040 432.64c-61.44-17.92-112.64-20.48-148.48-5.12 58.88 122.88 145.92 230.4 256 314.88 12.8 7.68 15.36 23.040 7.68 35.84s-23.040 15.36-35.84 7.68c-2.56 0-2.56-2.56-2.56-2.56-112.64-84.48-204.8-197.12-266.24-325.12-30.72 40.96-43.52 92.16-33.28 143.36 17.92 69.12 64 130.56 125.44 168.96 46.080 30.72 243.2 99.84 327.68 128-7.68-104.96-46.080-412.16-230.4-465.92z" />
<glyph unicode="&#xe91b;" glyph-name="light-fire-small" d="M259.746 787.668h-2.498c-29.971 2.498-57.444 0-84.917-7.493l-7.493-2.498c-9.99-2.498-19.98-4.995-29.971-9.99-24.976-14.985-47.454-32.468-67.434-54.946-82.42-89.912-72.429-229.776 19.98-312.195 0 0 0 0 0 0 14.985-12.488 22.478-29.971 24.976-49.951v-97.405c0-27.473 22.478-52.449 49.951-52.449 0 0 0 0 0 0h149.854c24.976 0 44.956 19.98 44.956 44.956v114.888c0 14.985 7.493 27.473 17.483 34.966h2.498c47.454 39.961 74.927 99.902 77.424 162.341 2.498 117.385-82.42 214.79-194.81 229.776zM307.2 253.19l-147.356 2.498v29.971h147.356v-32.468zM344.663 438.010c-22.478-19.98-34.966-44.956-37.463-74.927v-29.971h-144.859v17.483c-2.498 34.966-17.483 64.937-42.459 87.415-69.932 62.439-77.424 169.834-17.483 242.263 17.483 14.985 34.966 29.971 52.449 42.459 7.493 2.498 14.985 4.995 22.478 7.493l7.493 2.498c22.478 4.995 44.956 7.493 64.937 4.995h2.498c87.415-12.488 152.351-87.415 149.854-174.829 2.498-47.454-19.98-92.41-57.444-124.878zM319.688 165.776h-174.829c-14.985 0-24.976-9.99-24.976-24.976s9.99-24.976 24.976-24.976h174.829c14.985 0 24.976 9.99 24.976 24.976s-9.99 24.976-24.976 24.976zM979.044 500.449c-32.468 42.459-142.361 147.356-147.356 152.351-19.98 17.483-29.971 44.956-27.473 69.932s-14.985 44.956-39.961 47.454c-7.493 0-14.985 0-19.98-2.498-79.922-34.966-137.366-107.395-152.351-192.312 0-4.995-2.498-12.488-2.498-19.98v-2.498c-2.498-32.468 0-62.439 9.99-94.907-2.498 2.498-4.995 4.995-4.995 7.493-12.488 19.98-39.961 27.473-59.941 14.985-7.493-4.995-14.985-12.488-17.483-22.478-52.449-132.371 14.985-282.224 147.356-334.673 22.478-9.99 47.454-14.985 69.932-17.483h22.478c132.371 0 242.263 99.902 257.249 232.273v4.995c0 49.951 4.995 107.395-34.966 157.346zM961.561 348.098c0-2.498 0-2.498 0-4.995-12.488-104.898-102.4-184.82-207.298-184.82h-17.483c-114.888 9.99-199.805 112.39-189.815 227.278 2.498 14.985 4.995 29.971 9.99 44.956l4.995-4.995c17.483-19.98 42.459-32.468 69.932-34.966 4.995 0 9.99 0 14.985 0 14.985 0 24.976 12.488 24.976 24.976 0 4.995-2.498 9.99-4.995 14.985-19.98 37.463-29.971 77.424-24.976 119.883 0 0 0 2.498 0 2.498 0 4.995 0 7.493 2.498 12.488 12.488 67.434 54.946 122.38 114.888 152.351 0-37.463 14.985-72.429 42.459-99.902 0 0 112.39-107.395 142.361-147.356 22.478-34.966 19.98-69.932 17.483-122.38zM871.649 328.117c-4.995-2.498-12.488-2.498-19.98-2.498s-12.488 4.995-17.483 9.99c-2.498 4.995-2.498 14.985 0 19.98 9.99 19.98 14.985 42.459 12.488 64.937v2.498c0 0 0 2.498 0 2.498 0 2.498 0 2.498 0 4.995-2.498 17.483-9.99 34.966-22.478 49.951-7.493 9.99-24.976 12.488-34.966 4.995-2.498-2.498-7.493-7.493-7.493-9.99-9.99-24.976-27.473-44.956-52.449-57.444-39.961-22.478-64.937-67.434-62.439-112.39v-2.498c4.995-52.449 47.454-94.907 99.902-102.4 4.995 0 12.488-2.498 17.483-2.498 57.444 0 107.395 42.459 114.888 99.902 0 7.493-2.498 17.483-7.493 22.478-2.498 7.493-12.488 9.99-19.98 7.493zM826.693 263.18c-29.971-22.478-72.429-14.985-94.907 12.488-7.493 9.99-12.488 19.98-12.488 32.468v2.498c-2.498 27.473 12.488 52.449 34.966 64.937 14.985 9.99 29.971 19.98 42.459 34.966 0-9.99-2.498-19.98-7.493-29.971-12.488-22.478-12.488-47.454 0-67.434 9.99-17.483 29.971-32.468 49.951-34.966-2.498-7.493-7.493-12.488-12.488-14.985z" />
<glyph unicode="&#xe91c;" glyph-name="lightning-small" d="M990.976 631.040c-3.772 9.737-13.062 16.515-23.936 16.515-14.14 0-25.603-11.463-25.603-25.603 0-3.267 0.612-6.39 1.727-9.263l-0.060 0.175c18.966-48.519 29.957-104.693 29.957-163.435 0-254.493-206.307-460.8-460.8-460.8-133.64 0-253.993 56.89-338.162 147.774l-0.275 0.301c-6.789 7.362-13.414 15.286-19.646 23.523l-0.578 0.797 71.424-2.816c0.305-0.013 0.664-0.020 1.024-0.020 14.15 0 25.62 11.471 25.62 25.62 0 13.79-10.894 25.035-24.545 25.598l-126.259 4.866c-14.138 0-25.6-11.462-25.6-25.6v0l-6.912-124.672c0-14.138 11.462-25.6 25.6-25.6s25.6 11.462 25.6 25.6v0l2.304 57.344c4.608-5.632 9.216-11.52 14.336-16.896 89.124-96.712 214.601-158.751 354.602-164.321l0.982-0.031h20.224c282.579 0.252 511.557 229.386 511.557 512 0 65.331-12.236 127.803-34.541 185.251l1.193-3.491 0.768-2.816zM69.632 320c-11.377 38.127-17.925 81.935-17.925 127.274 0 254.493 206.307 460.8 460.8 460.8 123.375 0 235.426-48.486 318.136-127.443l-0.179 0.17-62.464 3.328c-14.138 0-25.6-11.462-25.6-25.6s11.462-25.6 25.6-25.6v0l126.208-4.864c14.138 0 25.6 11.462 25.6 25.6v0l5.12 126.208c0.013 0.305 0.020 0.664 0.020 1.024 0 14.15-11.471 25.62-25.62 25.62-13.79 0-25.035-10.894-25.598-24.545l-0.002-0.051-3.328-67.328c-92.256 90.39-218.719 146.172-358.21 146.172-282.77 0-512-229.23-512-512 0-50.524 7.318-99.339 20.952-145.442l-0.919 3.622c3.198-10.748 12.99-18.452 24.582-18.452 0.358 0 0.714 0.007 1.069 0.022l-0.051-0.002c1.077-0.187 2.318-0.294 3.584-0.294s2.507 0.107 3.714 0.312l-0.13-0.018c10.338 3.448 17.659 13.038 17.659 24.337 0 2.548-0.372 5.009-1.065 7.332l0.046-0.181zM718.848 693.248c-4.232 8.499-12.826 14.254-22.773 14.336l-268.811 1.792c-0.204 0.006-0.444 0.009-0.684 0.009-12.053 0-22.16-8.33-24.88-19.546l-0.036-0.175-68.864-295.936c-0.438-1.771-0.689-3.805-0.689-5.897 0-14.138 11.462-25.6 25.6-25.6 0.242 0 0.483 0.003 0.724 0.010l-0.035-0.001h71.68l-18.176-192.256c-0.029-0.459-0.046-0.996-0.046-1.537 0-14.065 11.342-25.48 25.379-25.599h0.011c0.011 0 0.025 0 0.039 0 8.789 0 16.543 4.429 21.153 11.176l0.057 0.088 215.808 322.56c2.575 3.927 4.107 8.738 4.107 13.907 0 4.27-1.045 8.295-2.894 11.835l0.067-0.141c-4.386 8.115-12.82 13.541-22.524 13.568h-51.204l114.944 150.528c3.076 4.174 4.923 9.418 4.923 15.093 0 4.307-1.063 8.365-2.942 11.926l0.067-0.14zM528.64 505.6c-3.262-4.252-5.227-9.647-5.227-15.502 0-4.145 0.985-8.061 2.734-11.524l-0.067 0.147c4.263-8.559 12.951-14.336 22.989-14.336 0.018 0 0.036 0 0.054 0h56.061l-132.864-198.144 11.52 119.296c0.066 0.691 0.104 1.493 0.104 2.304 0 14.138-11.462 25.6-25.6 25.6-0.037 0-0.073 0-0.11 0h-68.090l57.088 244.48h197.12l-115.712-152.32z" />
<glyph unicode="&#xe91d;" glyph-name="light-small" horiz-adv-x="845" d="M709.12 721.92c7.68 20.48 2.56 40.96-10.24 56.32l-17.92 17.92c-15.36 15.36-38.4 17.92-56.32 10.24-7.68 20.48-25.6 33.28-48.64 33.28h-25.6c-20.48 0-40.96-12.8-48.64-33.28-20.48 7.68-40.96 2.56-56.32-10.24l-17.92-17.92c-15.36-15.36-20.48-35.84-12.8-56.32-20.48-7.68-33.28-28.16-33.28-48.64v-23.040c0-20.48 12.8-38.4 33.28-48.64-7.68-20.48-5.12-43.52 10.24-56.32l17.92-17.92c15.36-15.36 38.4-20.48 56.32-10.24 7.68-20.48 25.6-33.28 48.64-33.28h23.040c20.48 0 40.96 12.8 48.64 33.28 20.48-10.24 43.52-5.12 58.88 7.68l17.92 17.92c15.36 15.36 20.48 38.4 12.8 56.32 20.48 7.68 33.28 28.16 33.28 51.2v23.040c0 20.48-12.8 38.4-33.28 48.64v0zM691.2 647.68c-10.24 0-20.48-7.68-23.040-17.92-2.56-7.68-5.12-12.8-7.68-20.48-5.12-10.24-2.56-23.040 5.12-30.72l-17.92-17.92c-7.68 7.68-20.48 10.24-30.72 5.12-5.12-2.56-12.8-5.12-20.48-7.68-10.24-2.56-17.92-12.8-17.92-25.6h-25.6c0 10.24-7.68 20.48-17.92 23.040-7.68 2.56-12.8 5.12-20.48 7.68-5.12 2.56-7.68 2.56-12.8 2.56-7.68 0-12.8-2.56-17.92-7.68l-17.92 17.92c7.68 7.68 10.24 20.48 5.12 30.72-2.56 5.12-5.12 12.8-7.68 20.48-2.56 10.24-12.8 17.92-25.6 17.92v25.6c10.24 0 20.48 7.68 23.040 17.92 2.56 7.68 5.12 12.8 7.68 20.48 5.12 10.24 2.56 23.040-5.12 30.72l17.92 15.36c10.24-5.12 20.48-5.12 30.72 0 5.12 2.56 12.8 5.12 20.48 7.68 10.24 2.56 20.48 12.8 17.92 25.6h25.6c0-10.24 7.68-20.48 17.92-23.040 7.68-2.56 12.8-5.12 20.48-10.24 10.24-5.12 23.040-2.56 30.72 5.12l17.92-17.92c-7.68-7.68-10.24-20.48-5.12-30.72 2.56-5.12 5.12-12.8 7.68-20.48 2.56-10.24 12.8-17.92 25.6-17.92v-25.6zM378.88 107.52c-15.36 15.36-35.84 25.6-58.88 25.6h-81.92c-40.96 0-74.24 35.84-74.24 76.8v135.68c0 12.8-5.12 25.6-12.8 33.28-15.36 10.24-33.28 15.36-53.76 12.8h-5.12c-20.48 0-38.4 15.36-40.96 38.4 0 7.68 2.56 12.8 5.12 20.48l87.040 112.64c0 2.56 2.56 2.56 2.56 5.12 5.12 7.68 7.68 17.92 7.68 28.16s2.56 17.92 2.56 28.16c0 10.24 2.56 17.92 2.56 25.6 10.24 158.72 87.040 230.4 117.76 258.56 5.12 5.12 7.68 7.68 10.24 10.24 7.68 10.24 7.68 28.16-5.12 35.84-10.24 7.68-25.6 7.68-33.28-2.56-2.56-2.56-5.12-5.12-7.68-7.68-33.28-30.72-122.88-112.64-133.12-291.84 0-7.68-2.56-15.36-2.56-23.040s-2.56-20.48-2.56-33.28c0-2.56 0-5.12-2.56-7.68l-87.040-110.080-2.56-2.56c-10.24-15.36-12.8-33.28-12.8-51.2 2.56-48.64 43.52-84.48 92.16-84.48h20.48v-133.12c0-69.12 56.32-125.44 125.44-128h84.48c7.68 0 15.36-2.56 23.040-10.24 5.12-5.12 10.24-15.36 7.68-23.040l2.56-84.48c0-15.36 10.24-25.6 25.6-25.6s25.6 10.24 25.6 25.6v84.48c0 23.040-7.68 43.52-25.6 61.44zM563.2 747.52c-48.64 0-87.040-38.4-87.040-87.040s38.4-87.040 87.040-87.040c48.64 0 87.040 38.4 87.040 87.040s-38.4 87.040-87.040 87.040zM563.2 624.64c-20.48 0-35.84 15.36-35.84 35.84s15.36 35.84 35.84 35.84c20.48 0 35.84-15.36 35.84-35.84s-15.36-35.84-35.84-35.84zM837.12 657.92c2.56 140.8-102.4 263.68-243.2 281.6h-2.56c-35.84 5.12-71.68 0-104.96-7.68l-10.24-2.56c-12.8-2.56-25.6-7.68-38.4-12.8-30.72-17.92-61.44-40.96-84.48-69.12-81.92-94.72-89.6-235.52-20.48-337.92 25.6-35.84 46.080-76.8 56.32-122.88l5.12-20.48h-2.56c-15.36 0-25.6-10.24-25.6-25.6s10.24-25.6 25.6-25.6h12.8l10.24-46.080c2.56-20.48 20.48-35.84 40.96-35.84h230.4c17.92 0 30.72 12.8 33.28 30.72l7.68 53.76h20.48c15.36 0 25.6 10.24 25.6 25.6s-10.24 25.6-25.6 25.6h-12.8c7.68 51.2 25.6 97.28 53.76 140.8 30.72 38.4 48.64 92.16 48.64 148.48zM665.6 281.6h-204.8l-7.68 30.72h217.6l-5.12-30.72zM744.96 532.48v0c-33.28-48.64-56.32-104.96-64-163.84v-5.12h-235.52l-7.68 33.28c-12.8 51.2-33.28 97.28-64 140.8-56.32 84.48-51.2 197.12 15.36 273.92 23.040 20.48 46.080 40.96 71.68 56.32 10.24 5.12 17.92 7.68 28.16 10.24l10.24 2.56c28.16 7.68 56.32 10.24 87.040 7.68v0c112.64-15.36 197.12-112.64 197.12-227.84 0-46.080-12.8-89.6-38.4-128zM673.28 204.8h-225.28c-15.36 0-25.6-10.24-25.6-25.6s10.24-25.6 25.6-25.6h225.28c15.36 0 25.6 10.24 25.6 25.6s-12.8 25.6-25.6 25.6z" />
<glyph unicode="&#xe91e;" glyph-name="linkedin" d="M235.52 614.4h-197.12c-15.36 0-25.6-10.24-25.6-25.6v-599.040c0-15.36 10.24-25.6 25.6-25.6h199.68c15.36 0 25.6 10.24 25.6 25.6v599.040c-2.56 15.36-12.8 25.6-28.16 25.6zM209.92 15.36h-145.92v547.84h148.48v-547.84zM138.24 947.2c-5.12 0-10.24 0-15.36 0-71.68-5.12-125.44-64-122.88-135.68s64-125.44 135.68-120.32c71.68 0 130.56 56.32 130.56 128 0 69.12-56.32 128-128 128zM135.68 742.4c-2.56 0-5.12 0-7.68 0-43.52 0-76.8 33.28-76.8 76.8 0 46.080 35.84 76.8 87.040 76.8 2.56 0 5.12 0 10.24 0 43.52 0 76.8-35.84 76.8-76.8-2.56-46.080-35.84-76.8-89.6-76.8zM1016.32 419.84c0 2.56 0 2.56 0 5.12-28.16 130.56-117.76 204.8-245.76 204.8-56.32-2.56-112.64-23.040-153.6-61.44v20.48c0 15.36-10.24 25.6-25.6 25.6h-199.68c-7.68 0-12.8-2.56-17.92-7.68s-7.68-12.8-7.68-17.92c2.56-53.76 0-591.36 0-596.48 0-15.36 10.24-25.6 25.6-25.6h197.12c15.36 0 25.6 10.24 25.6 25.6v302.080c0 12.8 0 25.6 5.12 38.4 10.24 33.28 43.52 58.88 79.36 58.88 20.48 0 74.24 0 74.24-110.080v-291.84c0-15.36 10.24-25.6 25.6-25.6h199.68c15.36 0 25.6 10.24 25.6 25.6v166.4l-7.68 263.68zM972.8 15.36h-148.48v266.24c0 102.4-46.080 161.28-125.44 161.28-56.32 0-107.52-35.84-125.44-89.6-7.68-17.92-10.24-38.4-7.68-58.88v-279.040h-148.48c0 97.28 0 440.32 0 547.84h145.92v-58.88c0-7.68 2.56-17.92 10.24-23.040 10.24-7.68 28.16-5.12 35.84 5.12 0 0 66.56 89.6 158.72 89.6 102.4 0 174.080-56.32 194.56-161.28l10.24-258.56v-140.8z" />
<glyph unicode="&#xe91f;" glyph-name="link-small" d="M921.6 842.971l-9.752 9.752c-87.771 87.771-229.181 87.771-316.952 0l-146.286-146.286c-43.886-39.010-63.39-92.648-63.39-151.162s24.381-112.152 63.39-156.038l9.752-9.752c24.381-24.381 48.762-39.010 78.019-48.762 14.629-4.876 34.133 0 39.010 19.505v0c0 4.876 0 4.876 0 9.752 0-4.876 0-14.629 0-19.505 0-43.886-19.505-82.895-48.762-112.152l-141.41-141.41c-63.39-63.39-165.79-63.39-229.181 0l-9.752 9.752c-63.39 63.39-63.39 165.79 0 224.305l146.286 141.41c19.505 19.505 43.886 34.133 68.267 39.010 14.629 4.876 24.381 19.505 19.505 39.010 0 9.752-9.752 14.629-14.629 19.505-4.876 0-14.629 0-19.505 0-34.133-9.752-68.267-29.257-97.524-53.638l-141.41-141.41c-43.886-39.010-63.39-97.524-63.39-156.038s24.381-117.029 63.39-156.038l9.752-9.752c39.010-39.010 97.524-63.39 156.038-63.39 0 0 0 0 0 0v0c58.514 0 112.152 24.381 156.038 63.39l146.286 141.41c43.886 43.886 63.39 102.4 63.39 156.038 0-4.876 4.876-4.876 4.876-4.876 4.876-9.752 19.505-14.629 29.257-9.752 4.876 0 4.876 0 4.876 0 34.133 9.752 68.267 29.257 97.524 53.638l146.286 141.41c43.886 39.010 63.39 97.524 63.39 156.038s-24.381 117.029-63.39 156.038zM877.714 574.781l-146.286-141.41c-19.505-19.505-43.886-34.133-68.267-39.010-9.752 0-19.505-9.752-24.381-19.505 0 0 0 0 0-4.876-4.876 48.762-24.381 97.524-63.39 131.657l-9.752 9.752c-19.505 19.505-39.010 34.133-63.39 43.886-4.876 0-9.752 4.876-14.629 4.876-9.752 0-24.381-4.876-29.257-19.505s0-34.133 19.505-39.010c19.505-9.752 34.133-19.505 48.762-34.133l9.752-9.752c24.381-24.381 39.010-53.638 43.886-82.895 0 0 0 0 0 0-4.876 9.752-9.752 14.629-19.505 14.629-19.505 9.752-39.010 19.505-58.514 34.133l-9.752 9.752c-29.257 29.257-48.762 68.267-48.762 112.152s19.505 82.895 48.762 112.152l141.41 156.038c63.39 63.39 165.79 63.39 229.181 0l9.752-9.752c29.257-29.257 48.762-68.267 43.886-112.152 4.876-48.762-9.752-87.771-39.010-117.029z" />
<glyph unicode="&#xe920;" glyph-name="loading-small" d="M1016.32 570.88c-10.24 10.24-25.6 10.24-35.84 0 0 0 0 0 0 0l-94.72-94.72c-10.24 207.36-186.88 366.080-394.24 355.84-92.16-5.12-179.2-43.52-245.76-110.080-7.68-10.24-7.68-28.16 5.12-35.84 7.68-7.68 20.48-7.68 30.72 0 125.44 128 330.24 128 458.24 0 56.32-56.32 92.16-133.12 94.72-215.040l-99.84 99.84c-10.24 10.24-25.6 10.24-35.84 0s-10.24-25.6 0-35.84l140.8-140.8c10.24-10.24 25.6-10.24 35.84 0l140.8 140.8c10.24 10.24 10.24 25.6 0 35.84zM783.36 279.040c-2.56-2.56-2.56-2.56 0 0v0c-20.48-30.72-43.52-56.32-71.68-79.36-53.76-40.96-120.32-64-189.44-69.12h-10.24c-179.2 0-325.12 145.92-325.12 325.12 0 0 0 0 0 0 0 12.8 0 25.6 2.56 38.4l99.84-97.28c10.24-10.24 25.6-10.24 35.84 0s10.24 25.6 0 35.84l-140.8 140.8c-10.24 10.24-25.6 10.24-35.84 0l-140.8-140.8c-10.24-10.24-10.24-25.6 0-35.84s25.6-10.24 35.84 0c0 0 0 0 0 0l94.72 94.72c0-10.24-2.56-23.040-2.56-33.28 0-207.36 168.96-376.32 376.32-376.32 0 0 0 0 0 0h10.24c79.36 2.56 156.16 30.72 220.16 79.36 30.72 25.6 58.88 53.76 81.92 87.040 7.68 10.24 5.12 28.16-5.12 35.84-12.8 7.68-28.16 5.12-35.84-5.12z" />
<glyph unicode="&#xe921;" glyph-name="location-small" d="M998.4 473.6h-43.52c-12.8 225.28-192 404.48-417.28 417.28v43.52c0 15.36-10.24 25.6-25.6 25.6s-25.6-10.24-25.6-25.6v-43.52c-225.28-12.8-404.48-192-417.28-417.28h-43.52c-15.36 0-25.6-10.24-25.6-25.6s10.24-25.6 25.6-25.6h43.52c12.8-225.28 192-404.48 417.28-417.28v-43.52c0-15.36 10.24-25.6 25.6-25.6s25.6 10.24 25.6 25.6v43.52c225.28 12.8 404.48 192 417.28 417.28h43.52c15.36 0 25.6 10.24 25.6 25.6s-10.24 25.6-25.6 25.6zM486.4 839.68v-66.56c-161.28-12.8-286.72-138.24-299.52-299.52h-66.56c12.8 197.12 168.96 353.28 366.080 366.080zM486.4 56.32c-197.12 12.8-353.28 168.96-366.080 366.080h66.56c12.8-161.28 140.8-286.72 299.52-299.52v-66.56zM512 232.96c-15.36 0-25.6-10.24-25.6-25.6v-33.28c-133.12 12.8-235.52 117.76-248.32 248.32h33.28c15.36 0 25.6 10.24 25.6 25.6s-10.24 25.6-25.6 25.6h-33.28c12.8 133.12 117.76 235.52 248.32 248.32v-33.28c0-15.36 10.24-25.6 25.6-25.6s25.6 10.24 25.6 25.6v33.28c133.12-12.8 235.52-117.76 248.32-248.32h-33.28c-15.36 0-25.6-10.24-25.6-25.6s10.24-25.6 25.6-25.6h33.28c-12.8-133.12-117.76-235.52-248.32-248.32v33.28c0 12.8-10.24 25.6-25.6 25.6zM537.6 56.32v66.56c161.28 12.8 286.72 140.8 299.52 299.52h66.56c-12.8-197.12-168.96-353.28-366.080-366.080zM837.12 473.6c-12.8 161.28-138.24 286.72-299.52 299.52v66.56c197.12-12.8 353.28-168.96 366.080-366.080h-66.56z" />
<glyph unicode="&#xe922;" glyph-name="media-small" d="M711.68 471.040l-309.76 184.32c-5.12 2.56-7.68 2.56-12.8 2.56-15.36 0-25.6-10.24-25.6-25.6v-371.2c0-15.36 10.24-25.6 25.6-25.6 5.12 0 10.24 2.56 12.8 5.12l309.76 186.88c2.56 2.56 7.68 5.12 7.68 7.68 7.68 12.8 5.12 28.16-7.68 35.84zM412.16 307.2v281.6l235.52-140.8-235.52-140.8zM512 960c-281.6 0-512-230.4-512-512s230.4-512 512-512 512 230.4 512 512c0 281.6-230.4 512-512 512zM512-12.8c-253.44 0-460.8 207.36-460.8 460.8s207.36 460.8 460.8 460.8 460.8-207.36 460.8-460.8c0-253.44-207.36-460.8-460.8-460.8z" />
<glyph unicode="&#xe923;" glyph-name="microphone-small" horiz-adv-x="666" d="M652.8 389.12c0 7.68 0 12.8-5.12 20.48-5.12 5.12-10.24 10.24-17.92 10.24 0 0 0 0 0 0-15.36 2.56-28.16-7.68-28.16-23.040-17.92-138.24-133.12-240.64-268.8-240.64s-250.88 102.4-266.24 240.64c0 10.24-7.68 17.92-15.36 20.48s-17.92 2.56-25.6-2.56c-7.68-5.12-10.24-15.36-10.24-23.040 20.48-153.6 143.36-271.36 294.4-281.6v-122.88h-79.36c-15.36 0-25.6-12.8-25.6-25.6 0-15.36 10.24-25.6 25.6-25.6h204.8c15.36 0 25.6 12.8 25.6 25.6 0 15.36-10.24 25.6-25.6 25.6h-74.24v120.32c151.040 12.8 271.36 130.56 291.84 281.6zM335.36 238.080v0c120.32 0 217.6 99.84 217.6 222.72v294.4c-10.24 115.2-104.96 204.8-217.6 204.8s-207.36-89.6-217.6-204.8v-296.96c0-120.32 97.28-220.16 217.6-220.16zM168.96 737.28c2.56 92.16 76.8 163.84 166.4 163.84s163.84-71.68 166.4-163.84v-296.96c-7.68-87.040-79.36-153.6-166.4-153.6s-158.72 66.56-166.4 153.6v296.96z" />
<glyph unicode="&#xe924;" glyph-name="microscope-small" horiz-adv-x="845" d="M815.104 291.328h-328.704c-14.138 0-25.6-11.462-25.6-25.6s11.462-25.6 25.6-25.6v0h113.664c-52.79-41.548-120.233-66.636-193.536-66.636-173.621 0-314.368 140.747-314.368 314.368 0 0.117 0 0.234 0 0.351v-0.018c-0.001 0.212-0.001 0.463-0.001 0.714 0 57.009 15.299 110.445 42.016 156.425l-0.8-1.491 212.48-210.944c4.627-4.601 11.006-7.444 18.048-7.444s13.421 2.844 18.049 7.446l148.479 147.455c4.677 4.64 7.572 11.070 7.572 18.176s-2.895 13.536-7.571 18.174l-0.002 0.002-330.752 328.448c-4.627 4.601-11.006 7.444-18.048 7.444s-13.421-2.844-18.049-7.446l0.001 0.001-56.32-55.808-63.488 63.232c-4.627 4.601-11.006 7.445-18.049 7.445-7.17 0-13.651-2.947-18.298-7.697l-0.004-0.005c-4.601-4.627-7.444-11.006-7.444-18.048s2.844-13.421 7.446-18.049l-0.001 0.001 63.488-62.976-55.808-55.552c-4.677-4.64-7.572-11.070-7.572-18.176s2.895-13.536 7.571-18.174l0.002-0.002 80.896-80.384c-34.539-54.481-55.041-120.824-55.041-191.955 0-0.286 0-0.572 0.001-0.857v0.044c0.154-188.621 143.309-346.368 331.008-364.8v-136.192h-212.224c-14.138 0-25.6-11.462-25.6-25.6s11.462-25.6 25.6-25.6v0h475.648c14.138 0 25.6 11.462 25.6 25.6s-11.462 25.6-25.6 25.6v0h-212.224v135.424c100.483 4.33 189.844 48.615 253.213 117.255l0.227 0.249h138.496c14.138 0 25.6 11.462 25.6 25.6s-11.462 25.6-25.6 25.6v0zM125.44 835.072l56.064 55.808 294.656-292.352-112.384-111.36-294.4 292.352 56.064 55.552zM403.712 375.296c4.625-4.589 10.995-7.424 18.028-7.424 0.052 0 0.104 0 0.156 0h-0.008c0.044 0 0.096 0 0.148 0 7.033 0 13.403 2.836 18.030 7.426l148.734 147.454c4.674 4.642 7.566 11.071 7.566 18.176 0 14.146-11.468 25.614-25.614 25.614-7.041 0-13.419-2.841-18.049-7.44l0.001 0.001-148.48-147.456c-4.832-4.663-7.832-11.196-7.832-18.43 0-6.98 2.794-13.308 7.324-17.926l-0.004 0.004z" />
<glyph unicode="&#xe925;" glyph-name="newspaper-small" d="M1024 696.32c0 46.080-38.4 81.92-84.48 81.92h-179.2v156.16c0 15.36-10.24 25.6-25.6 25.6h-614.4c-64 0-117.76-51.2-120.32-115.2v-883.2c0-15.36 10.24-25.6 25.6-25.6h972.8c15.36 0 25.6 10.24 25.6 25.6v734.72c0 0 0 0 0 0zM120.32 908.8h588.8v-130.56h-588.8c-35.84 0-69.12 28.16-69.12 66.56 2.56 35.84 33.28 64 69.12 64zM972.8-12.8h-921.6v760.32c20.48-12.8 43.52-20.48 69.12-20.48h821.76c17.92 0 30.72-15.36 30.72-30.72v-709.12zM865.28 550.4h-284.16c-15.36 0-25.6-10.24-25.6-25.6s10.24-25.6 25.6-25.6h284.16c15.36 0 25.6 10.24 25.6 25.6s-10.24 25.6-25.6 25.6zM865.28 332.8h-701.44c-15.36 0-25.6-10.24-25.6-25.6s10.24-25.6 25.6-25.6h701.44c15.36 0 25.6 10.24 25.6 25.6 0 12.8-10.24 25.6-25.6 25.6zM865.28 660.48h-284.16c-15.36 0-25.6-10.24-25.6-25.6s10.24-25.6 25.6-25.6h284.16c15.36 0 25.6 10.24 25.6 25.6s-10.24 25.6-25.6 25.6zM865.28 442.88h-284.16c-15.36 0-25.6-10.24-25.6-25.6s10.24-25.6 25.6-25.6h284.16c15.36 0 25.6 10.24 25.6 25.6s-10.24 25.6-25.6 25.6zM163.84 391.68h299.52c15.36 0 25.6 10.24 25.6 25.6v217.6c0 15.36-10.24 25.6-25.6 25.6h-299.52c-15.36 0-25.6-10.24-25.6-25.6v-217.6c0-15.36 12.8-25.6 25.6-25.6zM189.44 609.28h248.32v-166.4h-248.32v166.4zM865.28 112.64h-701.44c-15.36 0-25.6-10.24-25.6-25.6s10.24-25.6 25.6-25.6h701.44c15.36 0 25.6 10.24 25.6 25.6s-10.24 25.6-25.6 25.6zM865.28 222.72h-701.44c-15.36 0-25.6-10.24-25.6-25.6s10.24-25.6 25.6-25.6h701.44c15.36 0 25.6 10.24 25.6 25.6s-10.24 25.6-25.6 25.6z" />
<glyph unicode="&#xe926;" glyph-name="news-small" horiz-adv-x="922" d="M890.88 716.8l-102.4 66.56v89.6c0 25.6-10.24 48.64-30.72 66.56s-48.64 23.040-74.24 17.92l-563.2-112.64c-69.12-12.8-120.32-74.24-120.32-143.36v-161.28c0-69.12 51.2-130.56 120.32-143.36l23.040-5.12 171.52-440.32c2.56-10.24 12.8-15.36 23.040-15.36 15.36 0 25.6 12.8 25.6 25.6 0 2.56 0 5.12-2.56 10.24l-156.16 407.040 478.72-97.28c5.12 0 12.8-2.56 17.92-2.56 20.48 0 40.96 7.68 56.32 20.48 20.48 15.36 30.72 40.96 30.72 66.56v89.6l102.4 66.56c7.68 5.12 10.24 12.8 12.8 20.48v148.48c0 12.8-5.12 20.48-12.8 25.6zM737.28 368.64c0-10.24-5.12-20.48-12.8-25.6-10.24-7.68-20.48-10.24-33.28-7.68l-560.64 112.64c-43.52 7.68-76.8 46.080-79.36 92.16v161.28c0 46.080 33.28 84.48 79.36 94.72l560.64 112.64h7.68c7.68 0 17.92-2.56 23.040-7.68 7.68-5.12 12.8-15.36 12.8-25.6l2.56-506.88zM849.92 560.64l-61.44-40.96v204.8l61.44-40.96v-122.88z" />
<glyph unicode="&#xe927;" glyph-name="note-plus-small" d="M601.6 412.16h-64v64c0 15.36-10.24 25.6-25.6 25.6s-25.6-10.24-25.6-25.6v-64h-64c-15.36 0-25.6-10.24-25.6-25.6s10.24-25.6 25.6-25.6h64v-64c0-15.36 10.24-25.6 25.6-25.6s25.6 10.24 25.6 25.6v64h64c15.36 0 25.6 10.24 25.6 25.6 0 12.8-10.24 25.6-25.6 25.6zM512 657.92c-151.040 0-273.92-122.88-276.48-273.92 0-151.040 122.88-273.92 273.92-276.48 151.040 0 273.92 122.88 276.48 273.92 0 0 0 0 0 0 0 153.6-122.88 276.48-273.92 276.48zM512 158.72c-122.88 0-222.72 99.84-225.28 222.72s99.84 222.72 222.72 225.28c122.88 0 222.72-99.84 225.28-222.72 0-125.44-99.84-225.28-222.72-225.28zM913.92 888.32h-120.32v46.080c0 15.36-10.24 25.6-25.6 25.6s-25.6-10.24-25.6-25.6v-46.080h-204.8v46.080c0 15.36-10.24 25.6-25.6 25.6s-25.6-10.24-25.6-25.6v-46.080h-204.8v46.080c0 15.36-10.24 25.6-25.6 25.6s-25.6-10.24-25.6-25.6v-46.080h-120.32c-58.88 0-110.080-48.64-110.080-110.080v-732.16c0-61.44 51.2-110.080 110.080-110.080h801.28c61.44 0 110.080 48.64 110.080 110.080v732.16c2.56 61.44-48.64 110.080-107.52 110.080zM972.8 46.080c0-33.28-28.16-58.88-58.88-58.88h-803.84c-30.72 0-58.88 25.6-58.88 58.88v732.16c0 33.28 28.16 58.88 58.88 58.88h120.32v-64c0-15.36 10.24-25.6 25.6-25.6s25.6 10.24 25.6 25.6v64h204.8v-64c0-15.36 10.24-25.6 25.6-25.6s25.6 10.24 25.6 25.6v64h204.8v-64c0-15.36 10.24-25.6 25.6-25.6s25.6 10.24 25.6 25.6v64h120.32c33.28 0 58.88-25.6 58.88-58.88v-732.16z" />
<glyph unicode="&#xe928;" glyph-name="pdf-small" horiz-adv-x="768" d="M739.84 624.64l-317.44 314.88c-12.8 12.8-33.28 20.48-51.2 20.48h-258.56c-61.44 0-112.64-51.2-112.64-112.64v-801.28c0-58.88 51.2-110.080 112.64-110.080h535.040c61.44 0 112.64 51.2 112.64 112.64v527.36c0 17.92-7.68 35.84-20.48 48.64zM391.68 898.56l281.6-279.040h-192c-48.64 0-87.040 38.4-87.040 87.040v192zM709.12 48.64c0-33.28-28.16-61.44-61.44-61.44h-535.040c-33.28 0-61.44 28.16-61.44 61.44v798.72c0 33.28 28.16 61.44 61.44 61.44h227.84v-202.24c0-76.8 61.44-138.24 138.24-138.24h230.4v-519.68zM250.88 373.76c-7.68 2.56-20.48 2.56-43.52 2.56h-61.44v-184.32h35.84v69.12h23.040c17.92 0 30.72 0 38.4 2.56s12.8 5.12 17.92 7.68c5.12 5.12 10.24 10.24 15.36 17.92s5.12 17.92 5.12 28.16c0 15.36-2.56 25.6-10.24 35.84-2.56 10.24-10.24 15.36-20.48 20.48zM245.76 304.64c-2.56-5.12-7.68-7.68-12.8-10.24s-15.36-2.56-28.16-2.56h-20.48v51.2h17.92c12.8 0 23.040 0 25.6 0 5.12 0 10.24-2.56 15.36-7.68s5.12-10.24 5.12-15.36c0-7.68 0-12.8-2.56-15.36zM448 355.84c-7.68 7.68-17.92 12.8-28.16 17.92-7.68 2.56-20.48 2.56-35.84 2.56h-66.56v-184.32h69.12c12.8 0 25.6 2.56 33.28 5.12 10.24 2.56 20.48 7.68 25.6 15.36 7.68 7.68 15.36 17.92 20.48 33.28 2.56 10.24 5.12 23.040 5.12 38.4 0 17.92-2.56 30.72-5.12 43.52-5.12 10.24-10.24 17.92-17.92 28.16zM430.080 250.88c-2.56-7.68-5.12-15.36-10.24-17.92s-7.68-5.12-15.36-7.68c-5.12 0-12.8-2.56-23.040-2.56h-28.16v120.32h15.36c15.36 0 25.6 0 30.72-2.56 7.68-2.56 12.8-5.12 17.92-7.68s7.68-10.24 10.24-17.92 2.56-17.92 2.56-33.28 2.56-23.040 0-30.72zM540.16 268.8h76.8v33.28h-76.8v40.96h87.040v33.28h-125.44v-184.32h38.4z" />
<glyph unicode="&#xe929;" glyph-name="people-small" d="M381.44 266.24c-15.36 0-25.6-10.24-25.6-25.6v-276.48c0-15.36 10.24-25.6 25.6-25.6s25.6 10.24 25.6 25.6v276.48c0 12.8-10.24 25.6-25.6 25.6zM642.56 266.24c-15.36 0-25.6-10.24-25.6-25.6v-276.48c0-15.36 10.24-25.6 25.6-25.6s25.6 10.24 25.6 25.6v276.48c0 12.8-12.8 25.6-25.6 25.6zM903.68 706.56c61.44 48.64 71.68 138.24 23.040 199.68s-138.24 71.68-199.68 23.040-69.12-138.24-20.48-199.68c7.68-7.68 15.36-17.92 23.040-23.040-38.4-2.56-74.24-23.040-94.72-56.32-48.64 66.56-145.92 81.92-212.48 33.28-12.8-10.24-23.040-20.48-33.28-33.28-20.48 33.28-56.32 51.2-94.72 56.32 61.44 48.64 71.68 138.24 23.040 199.68s-135.68 71.68-197.12 23.040c-61.44-48.64-74.24-138.24-25.6-199.68 7.68-7.68 15.36-15.36 25.6-23.040-66.56-2.56-120.32-58.88-120.32-125.44v-294.4c0-15.36 10.24-25.6 25.6-25.6s25.6 10.24 25.6 25.6v294.4c0 40.96 33.28 74.24 74.24 74.24h158.72c40.96 0 74.24-33.28 74.24-74.24 0-2.56 0-2.56 0-5.12 0-5.12 0-10.24 0-17.92 0-48.64 23.040-94.72 64-122.88h-46.080c-74.24 0-135.68-61.44-135.68-135.68v-337.92c0-15.36 10.24-25.6 25.6-25.6s25.6 10.24 25.6 25.6v337.92c0 46.080 38.4 84.48 84.48 84.48h273.92c46.080 0 84.48-38.4 84.48-84.48v-337.92c0-15.36 10.24-25.6 25.6-25.6s25.6 10.24 25.6 25.6v337.92c0 74.24-61.44 135.68-135.68 135.68h-48.64c40.96 28.16 64 74.24 64 122.88 0 5.12 0 10.24 0 17.92 0 2.56 0 2.56 0 5.12 0 40.96 33.28 74.24 74.24 74.24h158.72c40.96 0 74.24-33.28 74.24-74.24v-294.4c0-15.36 10.24-25.6 25.6-25.6s25.6 10.24 25.6 25.6v294.4c0 66.56-53.76 122.88-120.32 125.44zM207.36 727.040c0 0 0 0 0 0-51.2 0-89.6 40.96-89.6 89.6 0 51.2 40.96 89.6 89.6 89.6 51.2 0 89.6-40.96 89.6-89.6s-40.96-89.6-89.6-89.6zM512 458.24c-56.32 0-102.4 46.080-102.4 102.4s46.080 102.4 102.4 102.4 102.4-46.080 102.4-102.4c0-56.32-46.080-102.4-102.4-102.4zM816.64 727.040c-51.2 0-89.6 40.96-89.6 89.6 0 51.2 40.96 89.6 89.6 89.6 51.2 0 89.6-40.96 92.16-89.6 0-48.64-40.96-89.6-92.16-89.6z" />
<glyph unicode="&#xe92a;" glyph-name="petrol-small" horiz-adv-x="563" d="M555.52-33.28l-168.96 650.24h48.64c15.36 0 25.6 10.24 25.6 25.6s-10.24 25.6-25.6 25.6h-304.64c-15.36 0-25.6-10.24-25.6-25.6s10.24-25.6 25.6-25.6h48.64l-171.52-650.24c-2.56-12.8 5.12-28.16 17.92-30.72s25.6 5.12 30.72 17.92l20.48 71.68 204.8 156.16 202.24-153.6h2.56l17.92-71.68c2.56-12.8 12.8-20.48 25.6-20.48 2.56 0 5.12 0 7.68 0 12.8 5.12 20.48 17.92 17.92 30.72zM396.8 373.76l-71.68 53.76 48.64 35.84 23.040-89.6zM230.4 619.52h102.4l25.6-99.84-76.8-58.88-76.8 58.88 25.6 99.84zM192 465.92l46.080-35.84-71.68-53.76 25.6 89.6zM97.28 104.96l46.080 179.2 94.72-71.68-140.8-107.52zM181.76 320l99.84 76.8 99.84-76.8-99.84-76.8-99.84 76.8zM325.12 212.48l94.72 71.68 46.080-179.2-140.8 107.52zM320 706.56c15.36 0 25.6 10.24 25.6 25.6v48.64c-5.12 28.16 15.36 53.76 43.52 58.88s53.76-15.36 58.88-43.52c0-5.12 0-10.24 0-15.36 0-15.36 10.24-25.6 25.6-25.6s25.6 10.24 25.6 25.6c5.12 56.32-33.28 107.52-89.6 112.64s-107.52-33.28-112.64-89.6c0-7.68 0-15.36 0-23.040v-51.2c-2.56-12.8 7.68-23.040 23.040-23.040zM92.16 832c15.36 0 25.6 10.24 25.6 25.6 0 28.16 23.040 51.2 51.2 51.2s51.2-23.040 51.2-51.2v-128c0-15.36 10.24-25.6 25.6-25.6s25.6 10.24 25.6 25.6v128c0 56.32-46.080 102.4-102.4 102.4s-102.4-46.080-102.4-102.4c0-15.36 12.8-25.6 25.6-25.6z" />
<glyph unicode="&#xe92b;" glyph-name="pin-small" horiz-adv-x="870" d="M435.2 960c-235.52-2.56-424.96-194.56-424.96-430.080 0-140.8 66.56-245.76 125.44-320 94.72-117.76 273.92-263.68 281.6-271.36 5.12-2.56 10.24-5.12 15.36-5.12s10.24 2.56 15.36 5.12c10.24 7.68 232.96 184.32 335.36 345.6 48.64 74.24 71.68 158.72 71.68 245.76 5.12 235.52-184.32 427.52-419.84 430.080zM742.4 312.32c-81.92-128-253.44-276.48-307.2-320-92.16 76.8-179.2 158.72-258.56 250.88-53.76 69.12-115.2 161.28-115.2 289.28 0 204.8 166.4 373.76 373.76 376.32 207.36-2.56 373.76-171.52 371.2-378.88 0-76.8-20.48-153.6-64-217.6zM435.2 704c-97.28 0-176.64-79.36-176.64-176.64s79.36-176.64 176.64-176.64 176.64 79.36 176.64 176.64c0 97.28-79.36 176.64-176.64 176.64zM560.64 527.36c0-69.12-56.32-125.44-125.44-125.44s-125.44 56.32-125.44 125.44c0 69.12 56.32 125.44 125.44 125.44v0c0 0 0 0 0 0 69.12 0 125.44-56.32 125.44-125.44 0 0 0 0 0 0z" />
<glyph unicode="&#xe92c;" glyph-name="podcast-small" horiz-adv-x="896" d="M642.56 913.92c-220.16 107.52-483.84 17.92-591.36-199.68s-17.92-483.84 202.24-591.36c12.8-5.12 28.16 0 33.28 12.8 7.68 12.8 2.56 28.16-10.24 33.28-133.12 64-220.16 202.24-217.6 350.72 0 151.040 89.6 291.84 227.84 353.28 194.56 89.6 427.52 5.12 517.12-192 89.6-194.56 5.12-427.52-192-517.12-10.24-5.12-15.36-12.8-15.36-23.040 0-15.36 12.8-25.6 25.6-25.6 2.56 0 7.68 0 10.24 2.56 92.16 43.52 166.4 115.2 212.48 207.36 107.52 217.6 17.92 481.28-202.24 588.8zM448 637.44c-64 0-117.76-53.76-117.76-117.76s53.76-117.76 117.76-117.76c64 0 117.76 53.76 117.76 117.76s-53.76 117.76-117.76 117.76zM448 453.12c0 0 0 0 0 0-35.84 0-66.56 30.72-66.56 66.56s30.72 66.56 66.56 66.56c35.84 0 66.56-30.72 66.56-66.56 0-38.4-30.72-66.56-66.56-66.56zM627.2 294.4c17.92 12.8 33.28 30.72 46.080 46.080 97.28 125.44 76.8 304.64-46.080 401.92-125.44 97.28-304.64 76.8-401.92-46.080-97.28-125.44-76.8-304.64 46.080-401.92 10.24-7.68 28.16-7.68 35.84 2.56 10.24 10.24 7.68 28.16-2.56 35.84-15.36 10.24-28.16 25.6-38.4 38.4-81.92 102.4-64 250.88 38.4 332.8s250.88 64 332.8-38.4c81.92-102.4 64-250.88-38.4-332.8 0 0 0 0 0 0-10.24-7.68-12.8-25.6-5.12-35.84 5.12-5.12 12.8-10.24 20.48-10.24 2.56 2.56 7.68 5.12 12.8 7.68zM453.12 366.080c-58.88 2.56-107.52-40.96-110.080-99.84v-225.28c0-58.88 46.080-104.96 104.96-104.96h2.56c0 0 0 0 0 0 58.88 0 104.96 46.080 104.96 104.96v225.28c-5.12 53.76-48.64 97.28-102.4 99.84zM501.76 40.96c0-28.16-23.040-53.76-53.76-53.76h-2.56c0 0 0 0 0 0-30.72 0-53.76 25.6-51.2 53.76v225.28c0 0 0 0 0 2.56 0 30.72 25.6 53.76 56.32 51.2 0 0 0 0 0 0 28.16 0 53.76-25.6 51.2-53.76v-225.28z" />
<glyph unicode="&#xe92d;" glyph-name="puzzle-small" d="M1006.080 660.48c0 0 0 0 0 0l-281.6 281.6c-25.6 25.6-66.56 25.6-92.16 0 0 0 0 0 0 0l-396.8-396.8c-53.76 33.28-122.88 17.92-156.16-35.84-23.040-38.4-23.040-84.48 0-122.88l-61.44-61.44c-25.6-25.6-25.6-66.56 0-92.16 0 0 0 0 0 0l279.040-279.040c25.6-25.6 66.56-25.6 92.16 0 0 0 0 0 0 0l76.8 76.8c10.24 10.24 10.24 25.6 0 35.84 0 0 0 0 0 0-15.36 15.36-23.040 38.4-17.92 58.88 5.12 25.6 25.6 43.52 51.2 48.64 20.48 2.56 40.96-2.56 53.76-17.92 10.24-10.24 25.6-10.24 35.84 0l209.92 209.92c10.24 10.24 10.24 25.6 0 35.84-23.040 25.6-20.48 66.56 5.12 89.6 23.040 23.040 61.44 23.040 84.48 0 10.24-10.24 25.6-10.24 35.84 0 0 0 0 0 0 0l76.8 76.8c28.16 25.6 30.72 66.56 5.12 92.16zM573.44 209.92c-53.76 33.28-122.88 17.92-156.16-35.84-23.040-35.84-23.040-84.48 0-120.32l-61.44-61.44c-5.12-5.12-12.8-5.12-17.92 0 0 0 0 0 0 0l-281.6 279.040c-5.12 5.12-5.12 12.8 0 20.48l76.8 76.8c5.12 5.12 7.68 10.24 7.68 17.92s-2.56 12.8-7.68 17.92c-25.6 25.6-25.6 64 0 89.6s64 25.6 89.6 0c10.24-10.24 25.6-10.24 35.84 0l87.040 87.040 71.68-71.68c-2.56-5.12-5.12-10.24-7.68-15.36 0 0 0-2.56 0-2.56-2.56-5.12-2.56-7.68-5.12-12.8 0-2.56 0-2.56 0-5.12 0-5.12-2.56-7.68-2.56-12.8v-15.36c0-5.12 0-7.68 0-12.8 0-2.56 0-5.12 2.56-7.68 0-5.12 2.56-7.68 2.56-12.8 0-2.56 2.56-5.12 2.56-7.68 2.56-5.12 5.12-7.68 7.68-12.8l2.56-5.12c7.68-12.8 17.92-23.040 30.72-30.72l5.12-2.56c2.56-2.56 7.68-5.12 12.8-7.68l7.68-2.56 20.48-5.12c5.12 0 7.68 0 12.8 0 2.56 0 5.12 0 5.12 0h10.24c5.12 0 7.68 0 12.8 2.56v0c5.12 0 10.24 2.56 12.8 5.12h2.56c5.12 2.56 10.24 5.12 15.36 7.68l71.68-71.68-66.56-71.68zM967.68 606.72c0 0 0 0 0 0l-61.44-61.44c-53.76 33.28-122.88 17.92-156.16-35.84-23.040-35.84-23.040-84.48 0-120.32l-71.68-71.68-87.040 87.040c-5.12 5.12-10.24 7.68-17.92 7.68s-12.8-2.56-17.92-7.68c-2.56-2.56-7.68-5.12-10.24-7.68h-2.56c-2.56-2.56-5.12-2.56-7.68-5.12h-2.56c-15.36-5.12-30.72-5.12-43.52 0h-2.56l-7.68 2.56-2.56 2.56-5.12 2.56c-2.56 2.56-5.12 2.56-5.12 5.12-2.56 2.56-2.56 5.12-5.12 7.68v0c0 2.56-2.56 2.56-2.56 5.12s-2.56 5.12-2.56 7.68v2.56c0 2.56-2.56 5.12-2.56 7.68-2.56 10.24 0 23.040 2.56 33.28 2.56 2.56 2.56 5.12 5.12 10.24v2.56c2.56 2.56 5.12 7.68 7.68 10.24 10.24 10.24 10.24 25.6 0 35.84l-87.040 87.040 289.28 289.28c5.12 5.12 12.8 5.12 20.48 0l279.040-276.48c2.56-7.68 2.56-15.36-2.56-20.48z" />
<glyph unicode="&#xe92e;" glyph-name="register-small" horiz-adv-x="819" d="M755.2 960h-691.2c-35.84 0-64-28.16-64-64v-898.56c0-33.28 28.16-61.44 64-61.44h691.2c35.84 0 64 28.16 64 64v896c-2.56 35.84-30.72 64-64 64zM765.44 0c0-7.68-5.12-12.8-12.8-12.8h-691.2c-5.12 0-10.24 5.12-10.24 12.8v896c0 7.68 5.12 12.8 12.8 12.8h691.2c7.68 0 12.8-5.12 12.8-12.8l-2.56-896zM665.6 821.76c0 0-2.56 0 0 0h-512c-15.36 0-25.6-10.24-25.6-25.6v-168.96c0-15.36 10.24-25.6 25.6-25.6h512c15.36 0 25.6 10.24 25.6 25.6v168.96c0 15.36-10.24 25.6-25.6 25.6zM637.44 652.8h-458.24v117.76h460.8l-2.56-117.76zM663.040 476.16h-519.68c-15.36 0-25.6-10.24-25.6-25.6s10.24-25.6 25.6-25.6h519.68c15.36 0 25.6 10.24 25.6 25.6s-10.24 25.6-25.6 25.6zM327.68 158.72h-184.32c-15.36 0-25.6-10.24-25.6-25.6s10.24-25.6 25.6-25.6h184.32c15.36 0 25.6 10.24 25.6 25.6s-12.8 25.6-25.6 25.6zM535.040 314.88h-391.68c-15.36 0-25.6-10.24-25.6-25.6s10.24-25.6 25.6-25.6h391.68c15.36 0 25.6 10.24 25.6 25.6s-10.24 25.6-25.6 25.6z" />
<glyph unicode="&#xe92f;" glyph-name="remove-small" d="M512 960c-281.6 0-512-230.4-512-512s230.4-512 512-512 512 230.4 512 512c0 281.6-230.4 512-512 512zM512-12.8c-253.44 0-460.8 207.36-460.8 460.8s207.36 460.8 460.8 460.8 460.8-207.36 460.8-460.8c0-253.44-207.36-460.8-460.8-460.8zM678.4 473.6h-332.8c-15.36 0-25.6-10.24-25.6-25.6s10.24-25.6 25.6-25.6h332.8c15.36 0 25.6 10.24 25.6 25.6s-10.24 25.6-25.6 25.6z" />
<glyph unicode="&#xe930;" glyph-name="run-small" d="M1016.32 660.48c0 0 0 0 0 0-10.24 10.24-25.6 10.24-35.84 0 0 0 0 0 0 0l-64-66.56c-28.16-28.16-76.8-28.16-104.96 0 0 0 0 0 0 0l-84.48 84.48c-51.2 51.2-128 51.2-179.2 5.12l-74.24-71.68c-10.24-10.24-10.24-25.6 0-35.84s25.6-10.24 35.84 0c0 0 0 0 0 0l74.24 71.68c30.72 28.16 76.8 28.16 104.96-2.56l30.72-30.72-186.88-181.76-325.12-314.88c-10.24-10.24-10.24-25.6 0-35.84 5.12-5.12 10.24-7.68 17.92-7.68s12.8 2.56 17.92 7.68l304.64 296.96 10.24-10.24c35.84-35.84 35.84-94.72 0-133.12l-117.76-117.76c-10.24-10.24-10.24-25.6 0-35.84 5.12-5.12 10.24-7.68 17.92-7.68s12.8 2.56 17.92 7.68l117.76 117.76c56.32 56.32 56.32 148.48 0 204.8l-7.68 7.68 168.96 163.84 17.92-17.92c48.64-48.64 130.56-48.64 179.2 0l64 64c10.24 12.8 10.24 30.72 0 38.4zM212.48 734.72h330.24c15.36 0 25.6 10.24 25.6 25.6s-10.24 25.6-25.6 25.6h-330.24c-15.36 0-25.6-10.24-25.6-25.6s10.24-25.6 25.6-25.6zM89.6 588.8h294.4c15.36 0 25.6 10.24 25.6 25.6s-10.24 25.6-25.6 25.6h-294.4c-15.36 0-25.6-10.24-25.6-25.6s12.8-25.6 25.6-25.6zM857.6 637.44c53.76 0 97.28 43.52 97.28 97.28s-43.52 97.28-97.28 97.28c-53.76 0-97.28-43.52-97.28-97.28 0 0 0 0 0 0 0-53.76 43.52-97.28 97.28-97.28zM857.6 780.8c25.6 0 46.080-20.48 46.080-46.080s-20.48-46.080-46.080-46.080c-25.6 0-46.080 20.48-46.080 46.080s20.48 46.080 46.080 46.080zM89.6 442.88h366.080c15.36 0 25.6 10.24 25.6 25.6s-10.24 25.6-25.6 25.6h-366.080c-15.36 0-25.6-10.24-25.6-25.6 0-12.8 12.8-25.6 25.6-25.6zM322.56 325.12c0 15.36-10.24 25.6-25.6 25.6h-271.36c-15.36 0-25.6-10.24-25.6-25.6s10.24-25.6 25.6-25.6h273.92c12.8 0 23.040 10.24 23.040 25.6z" />
<glyph unicode="&#xe931;" glyph-name="search-small" d="M1006.517-11.551c0 0 0 0 0 0l-329.678 329.678c134.868 154.849 122.38 387.122-24.976 526.985-152.351 142.361-384.624 137.366-529.483-7.493s-149.854-377.132-9.99-526.985c139.863-149.854 372.137-159.844 526.985-24.976l329.678-329.678c9.99-9.99 24.976-9.99 34.966 0 0 0 0 0 0 0 12.488 7.493 12.488 22.478 2.498 32.468zM392.117 240.702c0 0 0 0 0 0-182.322 0-327.18 147.356-327.18 327.18 0 182.322 147.356 327.18 327.18 327.18s327.18-147.356 327.18-327.18-144.859-327.18-327.18-327.18z" />
<glyph unicode="&#xe932;" glyph-name="share-small" d="M806.4 345.6v0c-64 0-123.733-29.867-162.133-76.8l-238.933 123.733c8.533 21.333 12.8 42.667 12.8 64s-4.267 42.667-8.533 59.733l234.667 119.467c64-89.6 187.733-106.667 277.333-38.4 89.6 64 106.667 187.733 38.4 277.333-64 81.067-187.733 102.4-277.333 34.133-51.2-38.4-81.067-98.133-81.067-157.867 0-21.333 4.267-42.667 8.533-59.733l-230.4-119.467c-64 89.6-192 106.667-277.333 42.667s-106.667-192-42.667-277.333c64-89.6 192-106.667 277.333-42.667 17.067 12.8 29.867 25.6 42.667 42.667l238.933-123.733c-8.533-21.333-12.8-42.667-12.8-64 0-110.933 89.6-200.533 200.533-200.533s200.533 89.6 200.533 200.533c-4.267 106.667-93.867 196.267-200.533 196.267zM802.133 883.2c72.533 0 136.533-59.733 136.533-136.533 0-72.533-59.733-136.533-136.533-136.533-72.533 0-136.533 59.733-136.533 136.533 4.267 76.8 64 136.533 136.533 136.533zM217.6 315.733c-72.533 0-136.533 59.733-136.533 136.533 0 72.533 59.733 136.533 136.533 136.533 72.533 0 136.533-59.733 136.533-136.533 0-72.533-59.733-132.267-136.533-136.533zM802.133 8.533c-72.533 0-136.533 59.733-136.533 136.533 0 72.533 59.733 136.533 136.533 136.533 72.533 0 136.533-59.733 136.533-136.533 0-72.533-59.733-132.267-136.533-136.533z" />
<glyph unicode="&#xe933;" glyph-name="six-people-small" d="M890.88 711.68c33.28 28.16 53.76 69.12 53.76 112.64 0 74.24-53.76 135.68-120.32 135.68s-120.32-61.44-120.32-135.68c0-43.52 17.92-84.48 51.2-112.64-35.84-2.56-66.56-23.040-89.6-51.2-20.48 28.16-51.2 46.080-87.040 48.64 35.84 30.72 56.32 71.68 56.32 115.2 0 74.24-56.32 135.68-122.88 135.68s-120.32-61.44-120.32-135.68c0-43.52 17.92-84.48 53.76-112.64-35.84-2.56-66.56-20.48-89.6-51.2-20.48 28.16-51.2 46.080-87.040 48.64 33.28 28.16 53.76 69.12 51.2 112.64 0 74.24-53.76 135.68-120.32 135.68-64 2.56-117.76-58.88-117.76-133.12 0-43.52 17.92-84.48 51.2-110.080-66.56-2.56-117.76-58.88-112.64-125.44 0 0 0-2.56 0-2.56v-158.72c0-15.36 10.24-25.6 25.6-25.6s25.6 10.24 25.6 25.6v156.16c0 69.12 48.64 79.36 76.8 79.36h107.52c43.52 0 76.8-33.28 76.8-76.8v-110.080c0-15.36 10.24-25.6 25.6-25.6s25.6 10.24 25.6 25.6v110.080c0 40.96 33.28 76.8 76.8 76.8h107.52c40.96 0 76.8-35.84 76.8-76.8v-110.080c0-15.36 10.24-25.6 25.6-25.6s25.6 10.24 25.6 25.6v110.080c0 43.52 33.28 76.8 76.8 76.8h107.52c40.96 0 76.8-35.84 76.8-76.8v-161.28c0-15.36 10.24-25.6 25.6-25.6s25.6 10.24 25.6 25.6v161.28c-5.12 64-53.76 117.76-117.76 125.44zM202.24 739.84c0 0 0 0 0 0-43.52 5.12-74.24 40.96-69.12 84.48 0 0 0 0 0 0-5.12 40.96 25.6 79.36 69.12 84.48 0 0 0 0 0 0 40.96-5.12 74.24-40.96 69.12-84.48 0 0 0 0 0 0 5.12-40.96-25.6-79.36-69.12-84.48zM514.56 739.84c-43.52 5.12-74.24 40.96-69.12 84.48-2.56 40.96 25.6 79.36 69.12 84.48 43.52-5.12 74.24-40.96 69.12-84.48 2.56-43.52-28.16-79.36-69.12-84.48zM824.32 739.84c-40.96 5.12-74.24 40.96-69.12 84.48-2.56 43.52 28.16 79.36 69.12 84.48 43.52-5.12 74.24-40.96 69.12-84.48 2.56-43.52-28.16-79.36-69.12-84.48zM890.88 248.32c33.28 28.16 53.76 69.12 53.76 112.64 0 74.24-53.76 135.68-120.32 135.68s-120.32-61.44-120.32-135.68c0-43.52 17.92-84.48 51.2-112.64-35.84-5.12-66.56-23.040-89.6-51.2-20.48 28.16-51.2 46.080-87.040 48.64 35.84 28.16 53.76 69.12 53.76 112.64 0 74.24-53.76 135.68-120.32 135.68s-120.32-61.44-120.32-135.68c0-43.52 17.92-84.48 51.2-112.64-35.84-5.12-66.56-23.040-89.6-51.2-20.48 28.16-51.2 46.080-87.040 48.64 33.28 28.16 53.76 69.12 51.2 112.64 0 74.24-53.76 135.68-120.32 135.68s-120.32-61.44-120.32-135.68c0-43.52 17.92-84.48 51.2-112.64-64-7.68-112.64-61.44-112.64-125.44v-156.16c0-15.36 10.24-25.6 25.6-25.6s25.6 10.24 25.6 25.6v161.28c0 43.52 33.28 76.8 76.8 76.8h112.64c43.52 0 76.8-33.28 76.8-76.8v-161.28c0-15.36 10.24-25.6 25.6-25.6s25.6 10.24 25.6 25.6v161.28c0 40.96 33.28 76.8 76.8 76.8h107.52c40.96 0 76.8-35.84 76.8-76.8v-161.28c0-15.36 10.24-25.6 25.6-25.6s25.6 10.24 25.6 25.6v161.28c0 43.52 33.28 76.8 76.8 76.8h107.52c40.96 0 76.8-35.84 76.8-76.8v-161.28c0-15.36 10.24-25.6 25.6-25.6s25.6 10.24 25.6 25.6v161.28c-5.12 64-53.76 117.76-117.76 125.44zM202.24 276.48c0 0 0 0 0 0-43.52 2.56-74.24 40.96-71.68 84.48 0 0 0 0 0 0-5.12 40.96 25.6 79.36 69.12 84.48 0 0 0 0 0 0 40.96-5.12 74.24-40.96 69.12-84.48 0 0 0 0 0 0 7.68-43.52-23.040-81.92-66.56-84.48zM514.56 273.92c-43.52 5.12-74.24 40.96-69.12 84.48-2.56 40.96 25.6 79.36 69.12 84.48 43.52-5.12 74.24-40.96 69.12-84.48 2.56-40.96-28.16-79.36-69.12-84.48zM824.32 273.92c-40.96 5.12-74.24 40.96-69.12 84.48-2.56 43.52 28.16 79.36 69.12 84.48 43.52-5.12 74.24-40.96 69.12-84.48 2.56-40.96-28.16-79.36-69.12-84.48z" />
<glyph unicode="&#xe934;" glyph-name="station-small" d="M1024 558.080v56.32c0 2.56 0 7.68-2.56 10.24l-115.2 281.6c-10.24 30.72-40.96 53.76-76.8 53.76h-634.88c-35.84 0-66.56-20.48-79.36-53.76l-112.64-281.6c0-2.56-2.56-5.12-2.56-10.24v-56.32c0-35.84 25.6-66.56 61.44-74.24v-496.64h-35.84c-15.36 0-25.6-10.24-25.6-25.6s10.24-25.6 25.6-25.6h972.8c15.36 0 25.6 10.24 25.6 25.6s-10.24 25.6-25.6 25.6h-38.4v496.64c35.84 5.12 64 35.84 64 74.24zM829.44 908.8c12.8 0 25.6-7.68 30.72-20.48l99.84-248.32h-117.76l-84.48 268.8h71.68zM704 908.8l84.48-268.8h-148.48l-30.72 268.8h94.72zM468.48 908.8h87.040l33.28-268.8h-163.84l43.52 268.8zM417.28 908.8l-40.96-268.8h-140.8l84.48 268.8h97.28zM161.28 888.32c5.12 12.8 17.92 20.48 33.28 20.48h74.24l-87.040-268.8h-117.76l97.28 248.32zM627.2-12.8h-514.56v110.080h514.56v-110.080zM627.2 148.48h-514.56v46.080h514.56v-46.080zM627.2 245.76h-514.56v238.080h514.56v-238.080zM908.8-12.8h-230.4v496.64h230.4v-496.64zM949.76 535.040h-872.96c-12.8 0-23.040 10.24-25.6 23.040v33.28c2.56 0 5.12 0 7.68 0h760.32c2.56 0 5.12 0 7.68-2.56 2.56 0 5.12 0 7.68 2.56h138.24v-30.72c0-15.36-10.24-25.6-23.040-25.6zM849.92 168.96c15.36 0 25.6 10.24 25.6 25.6v53.76c0 15.36-10.24 25.6-25.6 25.6s-25.6-10.24-25.6-25.6v-53.76c0-15.36 10.24-25.6 25.6-25.6z" />
<glyph unicode="&#xe935;" glyph-name="statistics-small" d="M934.4 960h-844.8c-51.2 0-89.6-40.96-89.6-89.6v-2.56c0-40.96 28.16-76.8 69.12-87.040v-527.36c0-15.36 10.24-25.6 25.6-25.6h394.24v-64l-227.84-181.76c-10.24-7.68-12.8-25.6-5.12-35.84 5.12-5.12 12.8-10.24 20.48-10.24 5.12 0 10.24 2.56 15.36 5.12l197.12 156.16v-102.4c0-15.36 10.24-25.6 25.6-25.6s25.6 10.24 25.6 25.6v102.4l194.56-153.6c5.12-2.56 10.24-5.12 15.36-5.12 15.36 0 25.6 12.8 25.6 25.6 0 7.68-2.56 15.36-10.24 20.48l-225.28 179.2v64h389.12c15.36 0 25.6 10.24 25.6 25.6v527.36c40.96 10.24 69.12 46.080 69.12 87.040v2.56c0 48.64-38.4 89.6-89.6 89.6zM903.68 279.040h-783.36v501.76h785.92v-501.76zM972.8 867.84c0-20.48-17.92-35.84-38.4-35.84h-844.8c-20.48 0-38.4 15.36-38.4 35.84v2.56c0 20.48 17.92 38.4 38.4 38.4h847.36c17.92 0 35.84-17.92 35.84-38.4v-2.56zM750.080 517.12c20.48 0 35.84-15.36 35.84-35.84s-15.36-35.84-35.84-35.84-35.84 15.36-35.84 35.84c0 15.36-10.24 25.6-25.6 25.6s-25.6-10.24-25.6-25.6c0-38.4 25.6-71.68 61.44-81.92v-28.16c0-15.36 10.24-25.6 25.6-25.6s25.6 10.24 25.6 25.6v28.16c46.080 12.8 71.68 61.44 56.32 107.52-10.24 35.84-43.52 61.44-81.92 61.44-20.48 2.56-33.28 17.92-33.28 38.4 2.56 17.92 15.36 30.72 33.28 33.28 20.48 0 35.84-15.36 35.84-35.84 0-15.36 10.24-25.6 25.6-25.6s25.6 10.24 25.6 25.6c0 38.4-25.6 71.68-61.44 81.92v28.16c0 15.36-10.24 25.6-25.6 25.6s-25.6-10.24-25.6-25.6v-28.16c-46.080-12.8-71.68-61.44-58.88-107.52 12.8-38.4 46.080-61.44 84.48-61.44zM227.84 573.44l138.24-23.040 115.2-143.36h-84.48c-15.36 0-25.6-10.24-25.6-25.6s10.24-25.6 25.6-25.6h138.24c2.56 0 5.12 0 7.68 2.56h2.56c2.56 0 5.12 2.56 5.12 5.12h2.56c2.56 2.56 2.56 5.12 5.12 7.68v0c0 2.56 2.56 5.12 2.56 7.68v140.8c0 12.8-10.24 25.6-25.6 25.6s-25.6-10.24-25.6-25.6v-64l-107.52 135.68c-5.12 5.12-10.24 7.68-15.36 10.24l-130.56 17.92-15.36 99.84c-2.56 12.8-17.92 23.040-30.72 20.48-15.36-2.56-23.040-15.36-20.48-30.72l20.48-115.2c0-10.24 7.68-17.92 17.92-20.48z" />
<glyph unicode="&#xe936;" glyph-name="suits-small" d="M998.4 396.8v0c0 2.56 0 5.12 0 7.68v158.72c0 64-46.080 115.2-110.080 122.88 33.28 28.16 51.2 66.56 51.2 110.080 0 76.8-53.76 138.24-120.32 138.24s-120.32-61.44-120.32-135.68c0-43.52 17.92-84.48 51.2-110.080-33.28-2.56-66.56-20.48-87.040-48.64-20.48 28.16-51.2 43.52-84.48 48.64 33.28 28.16 51.2 66.56 51.2 110.080 2.56 74.24-51.2 135.68-117.76 135.68s-120.32-61.44-120.32-135.68c0-43.52 17.92-84.48 51.2-110.080-33.28-2.56-66.56-20.48-87.040-48.64-20.48 28.16-51.2 43.52-84.48 48.64 33.28 28.16 51.2 66.56 51.2 110.080 2.56 74.24-51.2 135.68-117.76 135.68s-117.76-61.44-117.76-135.68c0-43.52 17.92-84.48 51.2-110.080-64-5.12-112.64-58.88-112.64-122.88v-158.72c0-2.56 0-5.12 2.56-7.68h-2.56c-15.36 0-25.6-10.24-25.6-25.6s10.24-25.6 25.6-25.6h17.92v-358.4c0-15.36 10.24-25.6 25.6-25.6s25.6 10.24 25.6 25.6v355.84h837.12v-358.4c0-15.36 10.24-25.6 25.6-25.6s25.6 10.24 25.6 25.6v358.4h15.36c15.36 0 25.6 10.24 25.6 25.6s-10.24 25.6-25.6 25.6zM204.8 883.2c40.96-5.12 71.68-40.96 69.12-84.48 2.56-40.96-25.6-79.36-69.12-84.48-40.96 7.68-71.68 43.52-66.56 84.48-5.12 43.52 25.6 79.36 66.56 84.48zM217.6 524.8l-12.8-17.92-12.8 17.92 12.8 30.72 12.8-30.72zM74.24 396.8c2.56 2.56 2.56 7.68 2.56 10.24v158.72c0 40.96 33.28 74.24 74.24 74.24h33.28c0-2.56-2.56-2.56-2.56-5.12l-43.52-104.96c-2.56-7.68-2.56-17.92 2.56-25.6l46.080-56.32c5.12-7.68 12.8-10.24 20.48-10.24s15.36 2.56 20.48 10.24l38.4 58.88c5.12 7.68 5.12 15.36 2.56 23.040l-38.4 104.96c0 2.56-2.56 2.56-2.56 5.12h30.72c40.96 0 74.24-33.28 74.24-74.24v-158.72c0-2.56 0-5.12 2.56-7.68h-261.12zM512 883.2c40.96-5.12 71.68-40.96 69.12-84.48 2.56-40.96-25.6-79.36-69.12-84.48-40.96 5.12-71.68 40.96-69.12 84.48-2.56 43.52 28.16 79.36 69.12 84.48zM524.8 524.8l-12.8-17.92-12.8 17.92 12.8 30.72 12.8-30.72zM381.44 396.8c0 2.56 2.56 5.12 2.56 7.68v158.72c0 40.96 33.28 74.24 74.24 74.24h33.28c0-2.56-2.56-2.56-2.56-5.12l-43.52-104.96c-2.56-7.68-2.56-17.92 2.56-25.6l43.52-56.32c5.12-7.68 12.8-10.24 20.48-10.24s15.36 5.12 20.48 10.24l38.4 58.88c5.12 7.68 5.12 15.36 2.56 23.040l-35.84 107.52c0 2.56-2.56 2.56-2.56 5.12h30.72c40.96 0 74.24-33.28 74.24-74.24v-158.72c0-2.56 0-5.12 2.56-7.68h-261.12zM819.2 883.2c40.96-5.12 71.68-40.96 69.12-84.48 2.56-40.96-25.6-79.36-69.12-84.48-40.96 5.12-71.68 40.96-69.12 84.48-2.56 43.52 28.16 79.36 69.12 84.48zM832 524.8l-12.8-17.92-12.8 17.92 12.8 30.72 12.8-30.72zM688.64 396.8c0 2.56 2.56 5.12 2.56 7.68v158.72c0 40.96 33.28 74.24 74.24 74.24h33.28l-2.56-5.12-43.52-104.96c-2.56-7.68-2.56-17.92 2.56-25.6l43.52-56.32c5.12-7.68 12.8-10.24 20.48-10.24s15.36 5.12 20.48 10.24l38.4 58.88c5.12 7.68 5.12 15.36 2.56 23.040l-35.84 107.52c0 2.56-2.56 2.56-2.56 5.12h30.72c40.96 0 74.24-33.28 74.24-74.24v-158.72c0-2.56 0-5.12 2.56-7.68h-261.12zM816.64 268.8h-609.28c-15.36 0-25.6-10.24-25.6-25.6v-161.28c0-15.36 10.24-25.6 25.6-25.6h606.72c15.36 0 25.6 10.24 25.6 25.6v161.28c2.56 15.36-10.24 25.6-23.040 25.6zM791.040 107.52h-558.080v110.080h555.52v-110.080z" />
<glyph unicode="&#xe937;" glyph-name="table-people-small" d="M916.48 524.8h-46.080c-30.72 0-61.44-12.8-84.48-35.84l-64-66.56c-7.68-7.68-15.36-10.24-25.6-12.8v33.28c0 43.52-35.84 79.36-79.36 79.36h-207.36c-43.52 0-79.36-35.84-79.36-79.36v-33.28c-10.24 0-17.92 5.12-25.6 12.8l-66.56 66.56c-23.040 23.040-53.76 35.84-84.48 35.84h-46.080c-58.88 0-107.52-48.64-107.52-107.52v-312.32c0-15.36 10.24-25.6 25.6-25.6s25.6 10.24 25.6 25.6v312.32c0 30.72 25.6 56.32 56.32 56.32h46.080c17.92 0 33.28-7.68 46.080-20.48l64-66.56c17.92-17.92 40.96-28.16 66.56-28.16h35.84c10.24 0 20.48-7.68 20.48-20.48v-12.8h-212.48c-15.36 0-25.6-10.24-25.6-25.6s10.24-25.6 25.6-25.6h69.12v-171.52c0-15.36 10.24-25.6 25.6-25.6s25.6 10.24 25.6 25.6v171.52h407.040v-171.52c0-15.36 10.24-25.6 25.6-25.6s25.6 10.24 25.6 25.6v171.52h99.84c15.36 0 25.6 10.24 25.6 25.6s-10.24 25.6-25.6 25.6h-217.6v12.8c0 10.24 7.68 20.48 20.48 20.48h35.84c25.6 0 48.64 10.24 66.56 28.16l64 66.56c12.8 12.8 28.16 20.48 46.080 20.48h46.080c30.72 0 56.32-25.6 56.32-56.32v-312.32c0-15.36 10.24-25.6 25.6-25.6s25.6 10.24 25.6 25.6v312.32c2.56 58.88-46.080 107.52-104.96 107.52zM645.12 409.6c-35.84-2.56-64-33.28-64-69.12v0-12.8h-140.8v12.8c0 35.84-25.6 64-61.44 69.12v35.84c0 15.36 12.8 28.16 28.16 28.16 0 0 0 0 0 0h207.36c15.36 0 28.16-12.8 28.16-28.16v-35.84zM890.88 558.080c71.68 0 130.56 58.88 130.56 128 0 71.68-58.88 130.56-128 130.56-71.68 0-130.56-58.88-130.56-128 0 0 0 0 0 0-2.56-71.68 56.32-130.56 128-130.56zM890.88 765.44c43.52 0 79.36-35.84 79.36-76.8 0-43.52-35.84-79.36-76.8-79.36-43.52 0-79.36 35.84-79.36 76.8-2.56 43.52 33.28 79.36 76.8 79.36zM135.68 558.080c71.68 0 130.56 56.32 130.56 128s-56.32 130.56-128 130.56-130.56-56.32-130.56-128 56.32-130.56 128-130.56zM135.68 765.44c43.52 0 79.36-33.28 79.36-76.8s-33.28-79.36-76.8-79.36c-43.52 0-79.36 33.28-79.36 76.8-2.56 43.52 33.28 79.36 76.8 79.36zM512 558.080c71.68 0 130.56 56.32 130.56 128s-56.32 130.56-128 130.56-130.56-56.32-130.56-128 56.32-130.56 128-130.56zM512 765.44c43.52 0 79.36-33.28 79.36-76.8s-33.28-79.36-76.8-79.36c-43.52 0-79.36 33.28-79.36 76.8s33.28 79.36 76.8 79.36z" />
<glyph unicode="&#xe938;" glyph-name="test-tube-small" d="M279.040 642.56c0 40.96-33.28 74.24-74.24 74.24s-74.24-33.28-74.24-74.24c0-40.96 33.28-74.24 74.24-74.24s74.24 33.28 74.24 74.24zM204.8 619.52c-12.8 0-23.040 10.24-23.040 23.040s10.24 23.040 23.040 23.040c0 0 0 0 0 0 12.8 0 23.040-10.24 23.040-23.040s-10.24-23.040-23.040-23.040zM985.6 174.080l-432.64 540.16 40.96 33.28c10.24 10.24 12.8 25.6 2.56 35.84-7.68 10.24-23.040 12.8-35.84 5.12l-94.72-74.24-156.16-125.44-61.44-48.64c-10.24-7.68-12.8-25.6-2.56-35.84 5.12-5.12 12.8-10.24 20.48-10.24 5.12 0 10.24 2.56 15.36 5.12l40.96 33.28 432.64-540.16c28.16-35.84 69.12-56.32 115.2-56.32 81.92 0 145.92 66.56 145.92 145.92 0 33.28-10.24 66.56-30.72 92.16zM363.52 565.76l99.84 79.36 48.64 38.4 238.080-296.96h-245.76l-140.8 179.2zM965.12 71.68c-2.56-25.6-15.36-48.64-35.84-64-40.96-33.28-102.4-25.6-135.68 15.36l-248.32 312.32h245.76l153.6-192c15.36-20.48 23.040-46.080 20.48-71.68zM353.28 709.12c43.52 0 76.8 33.28 76.8 76.8s-33.28 76.8-76.8 76.8-76.8-33.28-76.8-76.8 33.28-76.8 76.8-76.8zM353.28 811.52v0c15.36 0 25.6-10.24 25.6-25.6s-10.24-25.6-25.6-25.6c-15.36 0-25.6 10.24-25.6 25.6 0 12.8 10.24 25.6 25.6 25.6zM212.48 857.6c0 56.32-46.080 102.4-102.4 102.4s-102.4-46.080-102.4-102.4c0-56.32 46.080-102.4 102.4-102.4s102.4 46.080 102.4 102.4zM110.080 806.4c-28.16 0-51.2 23.040-51.2 51.2s23.040 51.2 51.2 51.2 51.2-23.040 51.2-51.2c0-28.16-23.040-51.2-51.2-51.2z" />
<glyph unicode="&#xe939;" glyph-name="ties-people-small" d="M901.12 668.16c28.16 33.28 46.080 74.24 46.080 120.32 0 89.6-66.56 166.4-148.48 166.4s-148.48-76.8-148.48-166.4c0-43.52 15.36-87.040 43.52-120.32-38.4-7.68-71.68-33.28-94.72-64-53.76 35.84-122.88 35.84-174.080-2.56-23.040 33.28-56.32 58.88-94.72 66.56 30.72 33.28 46.080 76.8 46.080 120.32 0 92.16-66.56 166.4-148.48 166.4s-148.48-74.24-148.48-166.4c0-43.52 15.36-87.040 43.52-120.32-71.68-12.8-122.88-76.8-122.88-151.040v-112.64c0-15.36 10.24-25.6 25.6-25.6s25.6 10.24 25.6 25.6v112.64c0 53.76 40.96 99.84 94.72 104.96v-35.84c0-25.6 20.48-46.080 46.080-46.080 0 0 0 0 0 0h5.12l-51.2-130.56c-5.12-10.24 0-23.040 7.68-30.72l56.32-40.96c5.12-2.56 10.24-5.12 15.36-5.12s12.8 2.56 15.36 5.12l51.2 40.96c7.68 7.68 12.8 17.92 7.68 28.16l-43.52 130.56c25.6 0 46.080 20.48 46.080 46.080v35.84c33.28-2.56 64-23.040 81.92-51.2 0-2.56 2.56-2.56 2.56-5.12-28.16-35.84-43.52-81.92-43.52-128 0-53.76 20.48-104.96 56.32-143.36-84.48-15.36-145.92-87.040-148.48-174.080v-130.56c0-15.36 10.24-25.6 25.6-25.6s25.6 10.24 25.6 25.6v130.56c0 66.56 53.76 122.88 120.32 125.44v-43.52c0-28.16 23.040-51.2 51.2-51.2h5.12l-51.2-130.56c-2.56-10.24 0-23.040 7.68-28.16l64-48.64c10.24-7.68 23.040-7.68 30.72 0l58.88 48.64c7.68 7.68 10.24 17.92 7.68 28.16l-48.64 133.12c28.16 0 51.2 23.040 51.2 51.2v40.96c66.56-2.56 120.32-58.88 120.32-125.44v-130.56c0-15.36 10.24-25.6 25.6-25.6s25.6 10.24 25.6 25.6v130.56c0 84.48-61.44 158.72-145.92 174.080 38.4 38.4 58.88 89.6 56.32 143.36 0 46.080-15.36 92.16-46.080 128 17.92 28.16 46.080 48.64 81.92 51.2v-35.84c0-25.6 20.48-46.080 46.080-46.080h5.12l-51.2-130.56c-5.12-10.24 0-23.040 7.68-30.72l56.32-40.96c5.12-2.56 10.24-5.12 15.36-5.12s12.8 2.56 15.36 5.12l51.2 40.96c7.68 7.68 12.8 17.92 7.68 28.16l-48.64 130.56h2.56c25.6 0 46.080 20.48 46.080 46.080v35.84c53.76-5.12 94.72-48.64 94.72-104.96v-112.64c0-15.36 10.24-25.6 25.6-25.6s25.6 10.24 25.6 25.6v112.64c7.68 84.48-43.52 145.92-115.2 161.28zM225.28 386.56l-23.040 17.92 23.040 61.44 20.48-61.44-20.48-17.92zM253.44 588.8h-56.32v33.28h56.32v-33.28zM227.84 673.28c-53.76 0-97.28 51.2-97.28 115.2s43.52 115.2 97.28 115.2c53.76 0 97.28-51.2 97.28-115.2-2.56-64-43.52-115.2-97.28-115.2zM514.56-2.56l-33.28 25.6 33.28 81.92 30.72-81.92-30.72-25.6zM550.4 204.8h-74.24v43.52h74.24v-43.52zM514.56 299.52c-64 0-117.76 64-117.76 140.8s53.76 140.8 117.76 140.8c64 0 117.76-64 117.76-140.8s-53.76-140.8-117.76-140.8zM798.72 389.12l-23.040 17.92 23.040 58.88 23.040-61.44-23.040-15.36zM826.88 591.36h-56.32v33.28h28.16c2.56 0 7.68 0 10.24 0h17.92v-33.28zM803.84 673.28h-10.24c-51.2 2.56-92.16 53.76-92.16 115.2s43.52 115.2 97.28 115.2 97.28-51.2 97.28-115.2-40.96-112.64-92.16-115.2z" />
<glyph unicode="&#xe93a;" glyph-name="tools-small" d="M944.64 232.96l-215.040 222.72 33.28 33.28c71.68-7.68 140.8 17.92 192 69.12 61.44 58.88 84.48 145.92 64 227.84-5.12 10.24-20.48 20.48-33.28 15.36-5.12 0-10.24-2.56-12.8-7.68l-89.6-89.6c-7.68-7.68-10.24-7.68-12.8-7.68h-7.68l-69.12 15.36c-7.68 2.56-12.8 7.68-15.36 15.36l-17.92 74.24c0 0 0 2.56 0 2.56-2.56 5.12 0 10.24 5.12 12.8l87.040 92.16c7.68 7.68 10.24 15.36 7.68 25.6-2.56 7.68-10.24 15.36-17.92 17.92-128 30.72-256-46.080-286.72-174.080-7.68-28.16-7.68-56.32-5.12-84.48l-2.56-2.56-23.040-25.6-192 202.24-25.6 28.16c-20.48 25.6-51.2 40.96-84.48 40.96-35.84 0-69.12-12.8-94.72-38.4l-56.32-53.76c-23.040-20.48-38.4-51.2-38.4-81.92-2.56-35.84 12.8-69.12 35.84-94.72l222.72-227.84-243.2-240.64c-56.32-51.2-64-133.12-20.48-194.56 25.6-43.52 74.24-69.12 125.44-69.12 38.4 0 74.24 15.36 102.4 43.52l243.2 245.76 212.48-217.6c2.56-2.56 5.12-2.56 7.68-5.12h5.12c5.12-5.12 12.8-5.12 17.92-7.68l186.88-33.28c2.56 0 5.12 0 7.68 0 12.8-2.56 25.6 0 38.4 7.68 5.12 2.56 10.24 10.24 10.24 15.36v2.56c2.56 7.68 5.12 15.36 7.68 23.040 0 2.56 0 2.56 0 5.12l-30.72 186.88c-5.12 12.8-10.24 23.040-17.92 30.72zM107.52 704c-15.36 15.36-23.040 35.84-23.040 56.32 0 17.92 10.24 33.28 23.040 46.080l56.32 56.32c15.36 15.36 35.84 23.040 56.32 23.040 17.92 0 33.28-10.24 46.080-23.040l12.8-12.8-158.72-158.72-12.8 12.8zM153.6 652.8l158.72 158.72 174.080-179.2-158.72-158.72-174.080 179.2zM220.16 12.8c-17.92-15.36-40.96-25.6-66.56-25.6-35.84 0-66.56 17.92-84.48 46.080-28.16 40.96-20.48 94.72 15.36 128l499.2 494.080c10.24 10.24 15.36 23.040 17.92 35.84 0 0 0 2.56 0 2.56-7.68 56.32 12.8 115.2 51.2 156.16 33.28 33.28 79.36 53.76 125.44 56.32l-53.76-53.76c-17.92-17.92-23.040-43.52-15.36-66.56l17.92-74.24c0 0 0-2.56 0-2.56 7.68-20.48 23.040-38.4 46.080-46.080h2.56l74.24-20.48c2.56 0 5.12 0 7.68 0h12.8c17.92 0 35.84 10.24 48.64 23.040l53.76 56.32c0-48.64-20.48-94.72-56.32-130.56-40.96-40.96-97.28-58.88-153.6-53.76-15.36 0-30.72-5.12-40.96-15.36l-501.76-509.44zM732.16 61.44l-194.56 199.68 156.16 158.72 194.56-202.24-156.16-156.16zM936.96 10.24l-156.16 25.6 130.56 130.56 28.16-156.16h-2.56z" />
<glyph unicode="&#xe93b;" glyph-name="twitter" d="M1021.44 760.32c-5.12 12.8-20.48 17.92-33.28 12.8-7.68-5.12-15.36-7.68-23.040-10.24 12.8 17.92 23.040 38.4 28.16 58.88 2.56 10.24 0 20.48-7.68 25.6s-17.92 7.68-28.16 2.56c-33.28-20.48-69.12-33.28-107.52-43.52-40.96 38.4-94.72 58.88-151.040 58.88-122.88 0-225.28-99.84-225.28-222.72v-17.92c-140.8 15.36-271.36 87.040-360.96 197.12-2.56 2.56-5.12 5.12-7.68 5.12-10.24 7.68-25.6 5.12-33.28-7.68-20.48-33.28-30.72-74.24-30.72-112.64 0-43.52 12.8-84.48 35.84-120.32v0c-5.12 2.56-7.68 2.56-10.24 2.56-12.8 0-25.6-10.24-25.6-23.040v-2.56c0-69.12 30.72-133.12 84.48-176.64-2.56-2.56-7.68-5.12-10.24-7.68-5.12-7.68-7.68-15.36-5.12-23.040 23.040-69.12 76.8-122.88 145.92-143.36-56.32-30.72-120.32-48.64-184.32-46.080-15.36 0-30.72 0-46.080 2.56-10.24 0-17.92-2.56-23.040-10.24-7.68-10.24-5.12-25.6 7.68-33.28 94.72-61.44 204.8-94.72 320-92.16 143.36 0 281.6 51.2 391.68 143.36 84.48 69.12 143.36 163.84 171.52 268.8 17.92 58.88 28.16 117.76 28.16 179.2v10.24c35.84 28.16 69.12 64 94.72 102.4 7.68 7.68 7.68 15.36 5.12 23.040zM885.76 668.16c-7.68-5.12-10.24-12.8-10.24-20.48v-25.6c0-56.32-10.24-112.64-25.6-166.4-25.6-94.72-79.36-179.2-156.16-243.2-99.84-87.040-227.84-133.12-360.96-133.12-71.68 0-140.8 12.8-207.36 40.96 76.8 7.68 151.040 38.4 212.48 87.040 7.68 7.68 10.24 17.92 7.68 25.6-2.56 10.24-12.8 15.36-23.040 17.92-61.44 0-117.76 33.28-148.48 87.040 20.48 0 38.4 2.56 56.32 7.68 5.12 2.56 10.24 7.68 12.8 15.36 5.12 12.8-2.56 28.16-15.36 33.28-69.12 12.8-122.88 66.56-135.68 135.68 20.48-5.12 40.96-10.24 61.44-10.24 10.24 0 20.48 7.68 23.040 17.92s0 20.48-10.24 28.16c-66.56 43.52-94.72 128-69.12 202.24 104.96-112.64 250.88-181.76 404.48-189.44 7.68 0 15.36 2.56 20.48 7.68s7.68 12.8 5.12 20.48c-2.56 12.8-5.12 25.6-5.12 40.96 0 48.64 20.48 94.72 56.32 128 71.68 66.56 181.76 61.44 248.32-7.68 5.12-5.12 15.36-7.68 23.040-7.68 20.48 0 43.52 7.68 64 15.36-12.8-12.8-25.6-25.6-43.52-35.84-5.12-5.12-7.68-10.24-7.68-17.92 0-15.36 10.24-25.6 23.040-25.6 12.8 2.56 25.6 5.12 38.4 7.68-10.24-15.36-25.6-25.6-38.4-35.84z" />
<glyph unicode="&#xe93c;" glyph-name="user-small" d="M512 450.56c97.28 0 176.64 79.36 176.64 176.64s-79.36 176.64-176.64 176.64-176.64-79.36-176.64-176.64c0-97.28 79.36-176.64 176.64-176.64zM512 750.080c69.12 0 122.88-56.32 125.44-122.88 0 0 0 0 0 0 0-69.12-56.32-125.44-125.44-125.44s-125.44 56.32-125.44 125.44 56.32 122.88 125.44 122.88zM668.16 409.6h-312.32c-64 0-117.76-51.2-117.76-117.76v-138.24c0-15.36 10.24-25.6 25.6-25.6s25.6 10.24 25.6 25.6v138.24c0 35.84 28.16 66.56 66.56 66.56h314.88c35.84 0 66.56-28.16 66.56-66.56v-138.24c0-15.36 10.24-25.6 25.6-25.6s25.6 10.24 25.6 25.6v138.24c-2.56 66.56-53.76 117.76-120.32 117.76zM512 960c-281.6 0-512-230.4-512-512s230.4-512 512-512 512 230.4 512 512-230.4 512-512 512zM512-12.8c-253.44 0-460.8 207.36-460.8 460.8s207.36 460.8 460.8 460.8 460.8-207.36 460.8-460.8-207.36-460.8-460.8-460.8z" />
<glyph unicode="&#xe93d;" glyph-name="video-small" d="M683.52 616.96l-263.68 156.16c-5.12 2.56-7.68 2.56-12.8 2.56-15.36 0-25.6-10.24-25.6-25.6v-314.88c0-15.36 10.24-25.6 25.6-25.6 5.12 0 10.24 2.56 12.8 2.56l263.68 158.72c2.56 2.56 7.68 5.12 7.68 7.68 7.68 15.36 2.56 30.72-7.68 38.4zM432.64 481.28v225.28l186.88-112.64-186.88-112.64zM942.080 952.32h-860.16c-46.080 0-81.92-35.84-81.92-81.92v-552.96c0-46.080 35.84-81.92 81.92-81.92h860.16c46.080 0 81.92 35.84 81.92 81.92v552.96c0 46.080-35.84 81.92-81.92 81.92zM972.8 317.44c0-17.92-12.8-30.72-30.72-30.72h-860.16c-17.92 0-30.72 12.8-30.72 30.72v552.96c0 17.92 12.8 30.72 30.72 30.72h860.16c17.92 0 30.72-12.8 30.72-30.72v-552.96zM995.84 56.32h-816.64v35.84c0 15.36-10.24 25.6-25.6 25.6s-25.6-10.24-25.6-25.6v-35.84h-102.4c-15.36 0-25.6-10.24-25.6-25.6s10.24-25.6 25.6-25.6h102.4v-35.84c0-15.36 10.24-25.6 25.6-25.6s25.6 10.24 25.6 25.6v35.84h816.64c15.36 0 25.6 10.24 25.6 25.6s-12.8 25.6-25.6 25.6z" />
<glyph unicode="&#xe93e;" glyph-name="xls-small" horiz-adv-x="768" d="M744.96 624.64l-317.44 314.88c-12.8 12.8-33.28 20.48-51.2 20.48h-261.12c-61.44 0-110.080-51.2-110.080-112.64v-801.28c0-61.44 51.2-112.64 112.64-112.64h535.040c61.44 0 112.64 51.2 112.64 112.64v529.92c-2.56 17.92-10.24 35.84-20.48 48.64zM394.24 898.56l281.6-279.040h-192c-48.64 0-87.040 38.4-87.040 87.040v192zM711.68 48.64c0-33.28-28.16-61.44-61.44-61.44h-535.040c-33.28 0-61.44 28.16-61.44 61.44v798.72c2.56 33.28 28.16 61.44 61.44 61.44h227.84v-202.24c0-76.8 61.44-138.24 138.24-138.24h230.4v-519.68zM296.96 376.32h-43.52l-35.84-58.88-35.84 58.88h-43.52l56.32-89.6-61.44-94.72h43.52l40.96 64 40.96-64h43.52l-61.44 94.72zM358.4 373.76h-35.84v-181.76h128v30.72h-92.16zM476.16 327.68c0-15.36 5.12-25.6 17.92-35.84 7.68-7.68 23.040-12.8 40.96-17.92 15.36-2.56 25.6-7.68 30.72-7.68 5.12-2.56 10.24-5.12 12.8-7.68s2.56-7.68 2.56-10.24-2.56-12.8-10.24-17.92c-5.12-5.12-15.36-7.68-28.16-7.68-10.24 0-20.48 2.56-25.6 7.68-7.68 5.12-10.24 15.36-12.8 25.6l-35.84-2.56c2.56-20.48 10.24-35.84 23.040-46.080s30.72-15.36 53.76-15.36c15.36 0 28.16 2.56 40.96 7.68 10.24 5.12 17.92 10.24 25.6 20.48s7.68 17.92 7.68 30.72c0 12.8-2.56 20.48-7.68 28.16s-12.8 15.36-20.48 17.92c-7.68 5.12-23.040 7.68-40.96 12.8s-28.16 7.68-33.28 12.8c-2.56 2.56-5.12 7.68-5.12 10.24 0 5.12 2.56 7.68 5.12 10.24 5.12 5.12 15.36 7.68 25.6 7.68s17.92-2.56 23.040-5.12c5.12-5.12 7.68-10.24 10.24-20.48l35.84 2.56c0 17.92-7.68 30.72-17.92 40.96-12.8 10.24-28.16 15.36-51.2 15.36-12.8 0-25.6-2.56-35.84-5.12-10.24-5.12-17.92-10.24-23.040-17.92-5.12-15.36-7.68-25.6-7.68-33.28z" />
</font>
</defs>
</svg>
